<?xml version="1.0" encoding="utf-8"?>
<!-- Generator: Adobe Illustrator 24.1.2, SVG Export Plug-In . SVG Version: 6.00 Build 0)  -->
<svg version="1.1" id="Слой_1" xmlns="http://www.w3.org/2000/svg" xmlns:xlink="http://www.w3.org/1999/xlink" x="0px" y="0px"
	 viewBox="0 0 364.8 228" style="enable-background:new 0 0 364.8 228;" xml:space="preserve">
<style type="text/css">
	.st0{fill:#D6001C;}
</style>
<path class="st0" d="M167.4,30.8c6.9,9.5,10.3,20.8,10.3,34c0,13.6-3.4,24.5-10.4,32.8c-3.9,4.6-9.6,8.8-17.2,12.6
	c11.5,4.2,20.2,10.7,26.1,19.6s8.8,19.8,8.8,32.6c0.2,12.5-3.3,24.9-10.1,35.5c-4.1,6.8-9.6,12.8-16,17.5
	c-7.5,5.5-16.2,9.3-25.4,11.1c-10.5,2.1-21.2,3.1-31.8,3H0V7.1h108.9C136.4,7.5,155.9,15.4,167.4,30.8z M44.9,45.7v49.1h54.8
	c9.8,0,17.7-1.8,23.8-5.5c6.1-3.7,9.2-10.2,9.2-19.5c0-10.4-4-17.2-12.1-20.6c-7-2.3-15.9-3.5-26.7-3.5L44.9,45.7z M44.9,131.6v59.3
	h54.7c9.8,0,17.4-1.3,22.8-3.9c9.9-4.9,14.8-14.1,14.8-27.8c0-11.6-4.8-19.5-14.3-23.9c-5.4-2.4-12.9-3.7-22.6-3.7H44.9z
	 M321.2,61.2c11.7,5.2,21.7,13.6,28.8,24.3c7,10.1,11.6,21.8,13.3,34c1.2,7.5,1.6,18.5,1.5,32.7H243.3c0.7,16.5,6.5,28.1,17.5,34.7
	c6.7,4.1,14.6,6.2,24,6.2c9.9,0,18-2.5,24.2-7.5c3.7-3.1,6.8-7,9-11.3h44.5c-1.2,9.7-6.6,19.7-16.1,29.7
	c-14.9,15.9-35.8,23.9-62.7,24c-22.2,0-41.8-6.7-58.7-20.2c-16.9-13.5-25.4-35.4-25.4-65.9c0-28.5,7.7-50.3,23-65.6
	c15.3-15.2,35.2-22.8,59.6-22.8C296.5,53.5,309.6,56.1,321.2,61.2z M256,98.4c-6.1,6.3-10,14.7-11.6,25.4h75.1
	c-0.8-11.4-4.7-20.1-11.6-26S292.3,89,282,89C270.8,89,262.1,92.1,256,98.4z M233.1,38h96.6V10.3h-96.6V38L233.1,38z"/>
</svg>
