<svg id="Слой_1" data-name="Слой 1" xmlns="http://www.w3.org/2000/svg" viewBox="0 0 364.75 227.99">
  <defs>
    <style>
      .cls-1 {
        fill: #0f0fea;
      }
    </style>
  </defs>
  <path class="cls-1" d="M690.61,553.37c6.89,9.46,10.33,20.75,10.33,34,0,13.56-3.44,24.5-10.42,32.76-3.92,4.58-9.64,8.82-17.21,12.63,11.49,4.15,20.15,10.69,26.06,19.63s8.78,19.81,8.78,32.58a64.26,64.26,0,0,1-10.06,35.45,61.56,61.56,0,0,1-16,17.49A62.71,62.71,0,0,1,656.67,749a158.62,158.62,0,0,1-31.85,3H523.25V529.66H632.18Q673.43,530.28,690.61,553.37ZM568.18,568.28v49.06H623q14.64,0,23.85-5.52c6.09-3.67,9.16-10.19,9.16-19.51,0-10.4-4-17.21-12.1-20.57q-10.47-3.45-26.65-3.46Zm0,85.86v59.3h54.74c9.78,0,17.42-1.3,22.85-3.92,9.89-4.88,14.82-14.09,14.82-27.77,0-11.61-4.77-19.54-14.34-23.87-5.38-2.4-12.91-3.67-22.57-3.74Zm276.24-63.2a67.15,67.15,0,0,1,28.77,24.33,79.3,79.3,0,0,1,13.31,34c1.19,7.52,1.64,18.45,1.46,32.65H766.51C767.24,698.39,773,710,784,716.59c6.65,4.12,14.63,6.2,24,6.2q14.84,0,24.17-7.53a36,36,0,0,0,9-11.3h44.5c-1.18,9.73-6.59,19.65-16.14,29.73q-22.39,23.92-62.72,24-33.32,0-58.71-20.23T722.65,671.6q0-42.74,23-65.57t59.6-22.79Q827,583.2,844.42,590.94Zm-65.19,37.14q-9.22,9.4-11.62,25.44h75.12c-.8-11.42-4.7-20.06-11.61-26s-15.59-8.85-25.87-8.85C794.1,618.69,785.39,621.83,779.23,628.08Zm-22.89-60.37h96.6V540h-96.6v27.68Z" transform="translate(-523.25 -529.66)"/>
</svg>
