<svg id="Слой_1" data-name="Слой 1" xmlns="http://www.w3.org/2000/svg" xmlns:xlink="http://www.w3.org/1999/xlink" viewBox="0 0 1808.35 409.91">
  <defs>
    <style>
      .cls-1 {
        fill: none;
      }

      .cls-2 {
        fill: url(#Безымянный_градиент_7);
      }

      .cls-3 {
        fill: url(#Безымянный_градиент_7-2);
      }

      .cls-4 {
        fill: url(#Безымянный_градиент_5);
      }

      .cls-5 {
        fill: url(#Безымянный_градиент_10);
      }

      .cls-6 {
        fill: #212121;
      }
    </style>
    <linearGradient id="Безымянный_градиент_7" data-name="Безымянный градиент 7" x1="-159.41" y1="782" x2="100.84" y2="521.74" gradientUnits="userSpaceOnUse">
      <stop offset="0.01" stop-color="#35e0d1"/>
      <stop offset="0.49" stop-color="#97ade2"/>
      <stop offset="1" stop-color="#ee80f1"/>
    </linearGradient>
    <linearGradient id="Безымянный_градиент_7-2" x1="-302.97" y1="651.76" x2="-13.13" y2="361.92" xlink:href="#Безымянный_градиент_7"/>
    <linearGradient id="Безымянный_градиент_5" data-name="Безымянный градиент 5" x1="-286.79" y1="494.19" x2="-21.66" y2="494.19" gradientUnits="userSpaceOnUse">
      <stop offset="0.1" stop-color="#4057ff" stop-opacity="0.3"/>
      <stop offset="0.5" stop-color="#aa5cff" stop-opacity="0.5"/>
      <stop offset="1" stop-color="#ff3f68" stop-opacity="0.9"/>
    </linearGradient>
    <linearGradient id="Безымянный_градиент_10" data-name="Безымянный градиент 10" x1="-319.42" y1="759.8" x2="91.98" y2="348.4" gradientUnits="userSpaceOnUse">
      <stop offset="0.1" stop-color="#4057ff"/>
      <stop offset="0.5" stop-color="#aa5cff"/>
      <stop offset="1" stop-color="#ff3f68"/>
    </linearGradient>
  </defs>
  <g>
    <g>
      <path class="cls-1" d="M-21.66,405.23c-44.84,19.08-93.69,48.24-141.4,84.46-46.31,35.16-86.63,73.25-116.76,110.25a171.7,171.7,0,0,0,46.54,75A172.52,172.52,0,0,0-204.1,697c43.35-19.08,90.35-47.44,136.05-82.13,47.13-35.78,88-74.53,118.3-112.16A171.44,171.44,0,0,0,2.84,424.42,172.91,172.91,0,0,0-21.66,405.23Z" transform="translate(359.21 -344.61)"/>
      <path class="cls-1" d="M-180.7,466.45c40.46-30.71,84.74-58.2,125.59-78a171.21,171.21,0,0,0-60-10.8,170.51,170.51,0,0,0-125.3,54,171,171,0,0,0-46.8,123.14c.08,2.83.25,5.68.47,8.55C-257.38,530.34-220.93,497-180.7,466.45Z" transform="translate(359.21 -344.61)"/>
      <path class="cls-1" d="M73.69,470.46c23.09-35.84,31-64.67,21-77.8-5-6.53-15.2-10-29.64-10-13.5,0-30.65,3.1-49.87,9,3.5,2.88,6.93,5.83,10.17,8.89A202.18,202.18,0,0,1,73.69,470.46Z" transform="translate(359.21 -344.61)"/>
      <path class="cls-1" d="M-303.13,631.52c-24,36.54-32.76,67.1-22.69,80.36s42.42,13.07,84.62-.61c-5.16-4-10.05-8.18-14.59-12.46A203.11,203.11,0,0,1-303.13,631.52Z" transform="translate(359.21 -344.61)"/>
      <path class="cls-1" d="M-50.41,638.09c-39.31,29.83-80.3,55.53-119.13,74.83A171.5,171.5,0,0,0,10,667.72,171.93,171.93,0,0,0,56.49,540.27C26.48,573.92-10.26,607.61-50.41,638.09Z" transform="translate(359.21 -344.61)"/>
      <g>
        <path class="cls-2" d="M84.84,505.74l-1,1.33c-6.59,8.78-13.87,17.79-21.65,26.77-1.85,2.14-3.83,4.28-5.74,6.43A171.93,171.93,0,0,1,10,667.72a171.5,171.5,0,0,1-179.57,45.2c-2.58,1.28-5.18,2.62-7.73,3.84-10.73,5.14-21.32,9.78-31.48,13.81l-1.51.59a205.58,205.58,0,0,0,95,23.36,205.79,205.79,0,0,0,149.2-64.28A204.85,204.85,0,0,0,84.84,505.74Z" transform="translate(359.21 -344.61)"/>
        <path class="cls-3" d="M-204.1,697a172.52,172.52,0,0,1-29.18-22.06,171.7,171.7,0,0,1-46.54-75c-.18-.6-.41-1.19-.59-1.79a171.89,171.89,0,0,1-5.55-26.7c-.34-2.71-.61-5.43-.83-8.14-.22-2.87-.39-5.72-.47-8.55a171,171,0,0,1,46.8-123.14,170.51,170.51,0,0,1,125.3-54,171.21,171.21,0,0,1,60.05,10.8c2.57,1,5.13,2,7.67,3.05a170.39,170.39,0,0,1,24.2,12.69c.54.34,1,.71,1.58,1.05a172.91,172.91,0,0,1,24.5,19.19,171.44,171.44,0,0,1,47.41,78.27c.4-.49.82-1,1.21-1.48,6.7-8.39,12.92-16.8,18.46-25,1.31-1.94,2.55-3.85,3.77-5.74a202.18,202.18,0,0,0-48.33-69.92c-3.24-3.06-6.67-6-10.17-8.89-1.76-1.46-3.52-2.93-5.34-4.33a202.67,202.67,0,0,0-23.27-15.49l-1.51-.82A204.3,204.3,0,0,0-264.35,409.1a203.6,203.6,0,0,0-55.72,146.63,206.71,206.71,0,0,0,5.5,41.36c.13.57.23,1.15.37,1.72a202.22,202.22,0,0,0,8.39,26.44c.84,2.12,1.77,4.19,2.68,6.27a203.11,203.11,0,0,0,47.34,67.29c4.54,4.28,9.43,8.45,14.59,12.46,1.3-.42,2.58-.81,3.9-1.26l2.64-.93c9.33-3.24,19-7.05,28.82-11.32Z" transform="translate(359.21 -344.61)"/>
      </g>
      <g>
        <path class="cls-4" d="M-280.41,598.15c.18.6.41,1.19.59,1.79,30.13-37,70.45-75.09,116.76-110.25,47.71-36.22,96.56-65.38,141.4-84.46-.53-.34-1-.71-1.58-1.05a170.39,170.39,0,0,0-24.2-12.69c-2.54-1.08-5.1-2.09-7.67-3.05-40.85,19.81-85.13,47.3-125.59,78-40.23,30.54-76.68,63.89-106.09,96.86.22,2.71.49,5.43.83,8.14A171.89,171.89,0,0,0-280.41,598.15Z" transform="translate(359.21 -344.61)"/>
        <path class="cls-5" d="M117.94,375C97,347.35,51,346-14.93,371l1.51.82A202.67,202.67,0,0,1,9.85,387.32c1.82,1.4,3.58,2.87,5.34,4.33,19.22-5.87,36.37-9,49.87-9,14.44,0,24.68,3.45,29.64,10,10,13.13,2.08,42-21,77.8-1.22,1.89-2.46,3.8-3.77,5.74-5.54,8.21-11.76,16.62-18.46,25-.39.49-.81,1-1.21,1.48C19.93,540.32-20.92,579.07-68,614.85c-45.7,34.69-92.7,63-136,82.13l-1.74.78c-9.8,4.27-19.49,8.08-28.82,11.32l-2.64.93c-1.32.45-2.6.84-3.9,1.26-42.2,13.68-74.46,14-84.62.61s-1.34-43.82,22.69-80.36c-.91-2.08-1.84-4.15-2.68-6.27a202.22,202.22,0,0,1-8.39-26.44c-.14-.57-.24-1.15-.37-1.72-3.68,4.93-6.9,9.4-9.76,13.59-35.59,52.17-44.15,93.26-24.73,118.84,10.85,14.29,28.64,21.54,52.89,21.54,19,0,42-4.51,68.23-13.41,5.6-1.89,11.41-4,17.68-6.49l1.51-.59c10.16-4,20.75-8.67,31.48-13.81,2.55-1.22,5.15-2.56,7.73-3.84,38.83-19.3,79.82-45,119.13-74.83,40.15-30.48,76.89-64.17,106.9-97.82,1.91-2.15,3.89-4.29,5.74-6.43,7.78-9,15.06-18,21.65-26.77l1-1.33C127.68,448.16,139.16,403,117.94,375Z" transform="translate(359.21 -344.61)"/>
      </g>
    </g>
    <g>
      <g>
        <path class="cls-6" d="M245.17,632a70.72,70.72,0,0,1-27.5-5.4,71.88,71.88,0,0,1-22.54-14.86,69.8,69.8,0,0,1-15.23-22.18,68,68,0,0,1-5.56-27.38,2.1,2.1,0,0,1,0-.43,2,2,0,0,1,0-.43,69,69,0,0,1,5.56-27.51,70.35,70.35,0,0,1,15.23-22.41,72.25,72.25,0,0,1,22.53-15,69.79,69.79,0,0,1,27.51-5.48,75.91,75.91,0,0,1,26.41,4.65,57.54,57.54,0,0,1,21.57,13.92,16.22,16.22,0,0,1,5.15,11.21,13,13,0,0,1-4.7,10.58,16.1,16.1,0,0,1-6.57,3.65,14.33,14.33,0,0,1-3.28.39,12.25,12.25,0,0,1-2.84-.32,15.82,15.82,0,0,1-5.32-2.29,45.51,45.51,0,0,1-4.2-3.15,40.8,40.8,0,0,0-13.46-7.84,41.84,41.84,0,0,0-13.2-2.09l-1.65,0a37.12,37.12,0,0,0-15.63,3.62,43,43,0,0,0-12.74,9.29,44.84,44.84,0,0,0-8.61,13.25,38.42,38.42,0,0,0-3.16,15.2,2.17,2.17,0,0,0,0,.72A38.84,38.84,0,0,0,206,576.9a45,45,0,0,0,8.55,13.24,43.28,43.28,0,0,0,12.74,9.43A36.66,36.66,0,0,0,243,603.26h.87a40,40,0,0,0,27.47-10.33c1.35-1,2.74-2,4.21-3a15.82,15.82,0,0,1,5.32-2.29,12.81,12.81,0,0,1,2.84-.32,13.81,13.81,0,0,1,3.28.4,15.92,15.92,0,0,1,6.56,3.64,13.24,13.24,0,0,1,4.63,10.48A15.86,15.86,0,0,1,293.13,613a59.53,59.53,0,0,1-21.6,14.1A72.8,72.8,0,0,1,245.17,632Z" transform="translate(359.21 -344.61)"/>
        <path class="cls-6" d="M381.51,632a68.75,68.75,0,0,1-27.37-5.55,71.1,71.1,0,0,1-37.61-37.54,70.69,70.69,0,0,1,0-55,70.75,70.75,0,0,1,15.15-22.4,72.44,72.44,0,0,1,22.46-15.07,70.44,70.44,0,0,1,54.81,0A70.61,70.61,0,0,1,446.34,534a70.81,70.81,0,0,1,0,55,72.32,72.32,0,0,1-15.07,22.38A71,71,0,0,1,409,626.45,68.62,68.62,0,0,1,381.51,632Zm0-112.33a40.67,40.67,0,0,0-16.28,3.3,43.32,43.32,0,0,0-13.36,8.94,42,42,0,0,0-9,13.28,41.55,41.55,0,0,0,0,32.41A43.52,43.52,0,0,0,351.81,591,42.89,42.89,0,0,0,365.16,600a40.54,40.54,0,0,0,16.35,3.36A39.72,39.72,0,0,0,397.83,600,43.07,43.07,0,0,0,411.05,591a42.31,42.31,0,0,0,8.88-13.35,41.86,41.86,0,0,0-8.87-45.7A43,43,0,0,0,397.85,523,40.63,40.63,0,0,0,381.51,519.67Z" transform="translate(359.21 -344.61)"/>
        <path class="cls-6" d="M515.11,632a84.68,84.68,0,0,1-14.71-1.33A61.4,61.4,0,0,1,486,626.29a53.9,53.9,0,0,1-12.6-7.83,37.1,37.1,0,0,1-9.33-11.68c-2.13-4-2.76-7.82-1.87-11.22a12.49,12.49,0,0,1,5.36-7.68,13,13,0,0,1,7.13-2,17,17,0,0,1,2.43.17,20,20,0,0,1,10.68,5.44,2,2,0,0,1,.3.35,27,27,0,0,0,10.69,8.84A36.14,36.14,0,0,0,515,604.26a30.52,30.52,0,0,0,8.12-1.08,23.58,23.58,0,0,0,6.84-3,15.26,15.26,0,0,0,4.55-4.54,10.18,10.18,0,0,0,1.57-5.65,8,8,0,0,0-2.67-5.75,30.56,30.56,0,0,0-7.65-5.41,81.61,81.61,0,0,0-10.46-4.42c-3.83-1.32-7.47-2.53-10.8-3.58q-6.57-2.52-13.17-5.55a57.73,57.73,0,0,1-12.43-7.66,37.78,37.78,0,0,1-9.24-11.07A31.72,31.72,0,0,1,466,531a36.39,36.39,0,0,1,3.89-17,38.2,38.2,0,0,1,10.44-12.57,47.08,47.08,0,0,1,15.29-7.8,63.11,63.11,0,0,1,18.62-2.68A81.36,81.36,0,0,1,527,492a59,59,0,0,1,12.27,3.35,43.66,43.66,0,0,1,10.54,5.95,27.73,27.73,0,0,1,7.57,9,15.06,15.06,0,0,1,1.42,8.51,12.41,12.41,0,0,1-3.16,6.95,14.59,14.59,0,0,1-6.45,4,11,11,0,0,1-3.14.47,11.26,11.26,0,0,1-4.88-1.16,1.76,1.76,0,0,1-.44-.29,46.13,46.13,0,0,0-11.31-7.6,32.6,32.6,0,0,0-13.3-2.41,49.32,49.32,0,0,0-8.92.75,21.18,21.18,0,0,0-6.72,2.36,12.7,12.7,0,0,0-4.25,3.93,9.76,9.76,0,0,0-1.48,5.55,7.75,7.75,0,0,0,1.59,5,15.91,15.91,0,0,0,4.88,3.9,45.31,45.31,0,0,0,7.86,3.23l10.21,3.24c5.85,1.83,11.57,3.9,17,6.17a62.89,62.89,0,0,1,14.54,8.39,38.49,38.49,0,0,1,10.14,12,34.43,34.43,0,0,1,3.83,16.6,37.31,37.31,0,0,1-3.87,16.74A41.49,41.49,0,0,1,550.37,620a50.21,50.21,0,0,1-15.78,8.83A58.53,58.53,0,0,1,515.11,632Z" transform="translate(359.21 -344.61)"/>
        <path class="cls-6" d="M754.29,630.27A14.84,14.84,0,0,1,744,626.21a14.47,14.47,0,0,1-3.15-4.48,13.41,13.41,0,0,1-1.18-5.61V542.48a24.78,24.78,0,0,0-2.26-9.1,21.83,21.83,0,0,0-5.36-7.21,26.38,26.38,0,0,0-7.84-4.76,25.13,25.13,0,0,0-9.22-1.74,24.17,24.17,0,0,0-9.39,1.87,25.75,25.75,0,0,0-7.84,5,24.27,24.27,0,0,0-5.33,7.39,22.46,22.46,0,0,0-2.11,9v73.16a13.74,13.74,0,0,1-4.09,10.06,13.57,13.57,0,0,1-9.93,4.09,14.83,14.83,0,0,1-10.25-4.06,15.54,15.54,0,0,1-3.21-4.44,12.88,12.88,0,0,1-1.27-5.65V542.34a24,24,0,0,0-2.25-9,22.71,22.71,0,0,0-5.31-7.16,25.8,25.8,0,0,0-7.69-4.75,25.12,25.12,0,0,0-18.67.14,27,27,0,0,0-7.93,5,23.52,23.52,0,0,0-5.38,7.38,21,21,0,0,0-2,9v73.21a13.7,13.7,0,0,1-4.09,10.06,13.53,13.53,0,0,1-9.92,4.09,14.67,14.67,0,0,1-5.61-1.08,14.48,14.48,0,0,1-4.64-3,14.33,14.33,0,0,1-3.16-4.48,13.56,13.56,0,0,1-1.17-5.61V542.91a49.23,49.23,0,0,1,4.26-20.28,52.83,52.83,0,0,1,11.57-16.49A56.43,56.43,0,0,1,616.46,495a51.14,51.14,0,0,1,20.32-4.11A51.69,51.69,0,0,1,659.41,496a56.41,56.41,0,0,1,16.51,12,57.56,57.56,0,0,1,16.7-12,53.25,53.25,0,0,1,42.85-1.12,53.7,53.7,0,0,1,28,26.85,51,51,0,0,1,4.78,19.48,8.49,8.49,0,0,1,.15,1.69v73.21a13.63,13.63,0,0,1-4.17,10.08A13.83,13.83,0,0,1,754.29,630.27Z" transform="translate(359.21 -344.61)"/>
        <path class="cls-6" d="M855.39,632A68.82,68.82,0,0,1,828,626.45a71.19,71.19,0,0,1-37.61-37.54,70.81,70.81,0,0,1,0-55,71.08,71.08,0,0,1,15.15-22.4A72.56,72.56,0,0,1,828,496.48a70.46,70.46,0,0,1,54.82,0A70.7,70.7,0,0,1,920.23,534a70.81,70.81,0,0,1,0,55,72.67,72.67,0,0,1-15.07,22.38,71.15,71.15,0,0,1-22.32,15.16A68.67,68.67,0,0,1,855.39,632Zm0-112.33a40.7,40.7,0,0,0-16.28,3.3,43.27,43.27,0,0,0-13.35,8.94,42,42,0,0,0-9,13.28,41.55,41.55,0,0,0,0,32.41,43.35,43.35,0,0,0,9,13.36A42.77,42.77,0,0,0,839.05,600a40.46,40.46,0,0,0,16.34,3.36A39.8,39.8,0,0,0,871.72,600,43.07,43.07,0,0,0,884.94,591a42.51,42.51,0,0,0,8.87-13.35,41.89,41.89,0,0,0-8.86-45.7A42.88,42.88,0,0,0,871.73,523,40.63,40.63,0,0,0,855.39,519.67Z" transform="translate(359.21 -344.61)"/>
        <path class="cls-6" d="M1112.54,630.27a14.76,14.76,0,0,1-5.62-1.08,14.49,14.49,0,0,1-4.63-3,14.33,14.33,0,0,1-3.16-4.48,13.56,13.56,0,0,1-1.18-5.61V542.48a24.39,24.39,0,0,0-2.26-9.1,21.94,21.94,0,0,0-5.35-7.21,26.56,26.56,0,0,0-7.85-4.76,25,25,0,0,0-9.21-1.74,24.19,24.19,0,0,0-9.4,1.87,25.7,25.7,0,0,0-7.83,5,24.11,24.11,0,0,0-5.33,7.39,22.63,22.63,0,0,0-2.12,9v73.16a13.7,13.7,0,0,1-4.09,10.06,13.53,13.53,0,0,1-9.92,4.09,14.76,14.76,0,0,1-5.62-1.08,14.49,14.49,0,0,1-4.63-3,15.17,15.17,0,0,1-3.21-4.44,12.88,12.88,0,0,1-1.27-5.65V542.34a24.23,24.23,0,0,0-2.26-9,22.69,22.69,0,0,0-5.3-7.16,25.73,25.73,0,0,0-7.7-4.75,25.12,25.12,0,0,0-18.67.14,27,27,0,0,0-7.92,5,23.71,23.71,0,0,0-5.39,7.38,21,21,0,0,0-2,9v73.21a13.74,13.74,0,0,1-4.09,10.06,13.53,13.53,0,0,1-9.92,4.09,14.76,14.76,0,0,1-5.62-1.08,14.33,14.33,0,0,1-4.63-3,14.17,14.17,0,0,1-3.16-4.48,13.56,13.56,0,0,1-1.18-5.61V542.91a49.24,49.24,0,0,1,4.27-20.28,52.5,52.5,0,0,1,11.57-16.49A56.17,56.17,0,0,1,974.72,495,51.11,51.11,0,0,1,995,490.93a51.72,51.72,0,0,1,22.63,5.08,56.37,56.37,0,0,1,16.5,12,57.69,57.69,0,0,1,16.7-12,53.28,53.28,0,0,1,42.86-1.12,53.7,53.7,0,0,1,28,26.85,51,51,0,0,1,4.77,19.48,8.44,8.44,0,0,1,.16,1.69v73.21a13.64,13.64,0,0,1-4.18,10.08A13.81,13.81,0,0,1,1112.54,630.27Z" transform="translate(359.21 -344.61)"/>
        <path class="cls-6" d="M1213.65,632a68.75,68.75,0,0,1-27.37-5.55,71.1,71.1,0,0,1-37.61-37.54,70.69,70.69,0,0,1,0-55,70.75,70.75,0,0,1,15.15-22.4,72.44,72.44,0,0,1,22.46-15.07,70.3,70.3,0,0,1,54.59-.07,71,71,0,0,1,37.39,37.09,68.78,68.78,0,0,1,5.78,27.22v54.82a14.36,14.36,0,0,1-4.22,10.41,14.18,14.18,0,0,1-10.51,4.32,13.08,13.08,0,0,1-10.14-4.38,14.78,14.78,0,0,1-3.85-9.36A77.64,77.64,0,0,1,1237.94,627,60.32,60.32,0,0,1,1213.65,632Zm0-112.33a40.67,40.67,0,0,0-16.28,3.3,43.17,43.17,0,0,0-13.36,8.95,41.8,41.8,0,0,0-9,13.27,41.55,41.55,0,0,0,0,32.41,43.52,43.52,0,0,0,9,13.36,42.93,42.93,0,0,0,13.36,9.08,40.46,40.46,0,0,0,16.34,3.36A39.8,39.8,0,0,0,1230,600,43.14,43.14,0,0,0,1243.2,591a42.68,42.68,0,0,0,8.87-13.35,42.46,42.46,0,0,0,0-32.44,41.65,41.65,0,0,0-8.87-13.26A43,43,0,0,0,1230,523,40.63,40.63,0,0,0,1213.65,519.67Z" transform="translate(359.21 -344.61)"/>
      </g>
      <path class="cls-6" d="M1322.81,679a14.17,14.17,0,0,1-5.67-1.17,15.24,15.24,0,0,1-4.62-3.14,14.72,14.72,0,0,1-3.14-4.71,14.87,14.87,0,0,1-1.16-5.86V561.46a69.1,69.1,0,0,1,5.55-27.51,71.05,71.05,0,0,1,15.16-22.4,72.4,72.4,0,0,1,22.45-15.07,70.46,70.46,0,0,1,54.82,0A70.7,70.7,0,0,1,1443.59,534a70.81,70.81,0,0,1,0,55,72.44,72.44,0,0,1-15.07,22.38,71.15,71.15,0,0,1-22.32,15.16,70.54,70.54,0,0,1-51.87,1.18,74.38,74.38,0,0,1-17.51-9.57v46.09a15.39,15.39,0,0,1-3.79,10.49A13.06,13.06,0,0,1,1322.81,679Zm55.94-159.36a40.62,40.62,0,0,0-16.27,3.3,43.17,43.17,0,0,0-13.36,8.95,41.69,41.69,0,0,0-9,13.27,41.55,41.55,0,0,0,0,32.41,43.41,43.41,0,0,0,9,13.36,42.77,42.77,0,0,0,13.35,9.08,40.5,40.5,0,0,0,16.34,3.36,39.76,39.76,0,0,0,16.33-3.36A42.9,42.9,0,0,0,1408.3,591a42.34,42.34,0,0,0,8.87-13.35,41,41,0,0,0,3.23-16.15,41.65,41.65,0,0,0-12.09-29.55A42.73,42.73,0,0,0,1395.1,523,40.72,40.72,0,0,0,1378.75,519.67Z" transform="translate(359.21 -344.61)"/>
    </g>
  </g>
</svg>
