<svg id="Слой_1" data-name="Слой 1" xmlns="http://www.w3.org/2000/svg" viewBox="0 0 329.64 329.64">
  <defs>
    <style>
      .cls-1 {
        fill: #0f0fea;
      }
    </style>
  </defs>
  <path class="cls-1" d="M689.18,854c-90.88,0-164.82-73.94-164.82-164.82S598.3,524.36,689.18,524.36,854,598.3,854,689.18v18.36c0,34.85-26.11,62.15-59.44,62.15a59.23,59.23,0,0,1-45.27-21.4,3.8,3.8,0,0,0-2.67-1.35h-.23a3.76,3.76,0,0,0-2.58,1,80.6,80.6,0,1,1-1.95-119.14,3.79,3.79,0,0,0,2.49.93h25.34v80.51a24.9,24.9,0,0,0,24.87,24.87c14.41,0,24.87-11.6,24.87-27.58V689.18A130.16,130.16,0,1,0,751,803.86l17.3,29.94A164.78,164.78,0,0,1,689.18,854Zm0-210.76a45.94,45.94,0,1,0,46,45.94A46,46,0,0,0,689.18,643.24Z" transform="translate(-524.36 -524.36)"/>
</svg>
