<?xml version="1.0" encoding="utf-8"?>
<!-- Generator: Adobe Illustrator 24.1.2, SVG Export Plug-In . SVG Version: 6.00 Build 0)  -->
<svg version="1.1" id="Слой_1" xmlns="http://www.w3.org/2000/svg" xmlns:xlink="http://www.w3.org/1999/xlink" x="0px" y="0px"
	 viewBox="0 0 329.6 329.6" style="enable-background:new 0 0 329.6 329.6;" xml:space="preserve">
<style type="text/css">
	.st0{fill:#D6001C;}
</style>
<path class="st0" d="M164.8,329.6C73.9,329.6,0,255.7,0,164.8S73.9,0,164.8,0s164.8,73.9,164.8,164.8v18.4
	c0,34.8-26.1,62.2-59.4,62.2c-17.5-0.1-34.1-7.9-45.3-21.4c-0.7-0.8-1.6-1.3-2.7-1.3H222c-1,0-1.9,0.4-2.6,1
	c-32.4,30.5-83.4,29-113.9-3.4c-30.5-32.4-29-83.4,3.4-113.9c30.3-28.5,77.3-29.3,108.6-1.8c0.7,0.6,1.6,0.9,2.5,0.9h25.3v80.5
	c0,13.7,11.1,24.9,24.9,24.9c14.4,0,24.9-11.6,24.9-27.6v-18.3c0-71.9-58.4-130.1-130.2-130.1C92.9,34.8,34.7,93.1,34.8,165
	S93.1,295.1,165,295.1c21.5,0,42.7-5.4,61.6-15.6l17.3,29.9C219.7,322.7,192.5,329.7,164.8,329.6z M164.8,118.9
	c-25.4,0-45.9,20.6-45.9,46c0,25.4,20.6,45.9,46,45.9c25.3,0,45.9-20.6,45.9-45.9C210.8,139.4,190.2,118.9,164.8,118.9z"/>
</svg>
