<svg id="Слой_1" data-name="Слой 1" xmlns="http://www.w3.org/2000/svg" viewBox="0 0 340.21 326.04">
  <defs>
    <style>
      .cls-1 {
        fill: #0f0fea;
      }
    </style>
  </defs>
  <path class="cls-1" d="M692.9,523.46c-94,0-170.11,74.84-170.11,167.15,0,73.87,48.74,136.51,116.31,158.6,8.51,1.57,11.62-3.6,11.62-8,0-4-.14-14.49-.21-28.42-47.31,10.07-57.29-22.43-57.29-22.43-7.74-19.29-18.93-24.45-18.93-24.45-15.41-10.36,1.19-10.15,1.19-10.15,17.09,1.16,26.06,17.22,26.06,17.22,15.17,25.56,39.82,18.18,49.54,13.91,1.53-10.82,5.91-18.17,10.77-22.36-37.77-4.18-77.48-18.55-77.48-82.59A63.86,63.86,0,0,1,601.88,637c-1.91-4.22-7.66-21.21,1.49-44.24,0,0,14.24-4.48,46.77,17.14a163.14,163.14,0,0,1,85.05,0c32.32-21.62,46.57-17.14,46.57-17.14,9.15,23,3.4,40,1.7,44.24A64.12,64.12,0,0,1,800.9,681.9c0,64.21-39.76,78.34-77.61,82.45,6,5,11.48,15.27,11.48,30.93,0,22.37-.21,40.35-.21,45.77,0,4.39,3,9.62,11.69,7.94C814.31,827.05,863,764.37,863,690.61c0-92.31-76.16-167.15-170.1-167.15Zm0,0" transform="translate(-522.79 -523.46)"/>
</svg>
