<?xml version="1.0" encoding="utf-8"?>
<!-- Generator: Adobe Illustrator 24.1.2, SVG Export Plug-In . SVG Version: 6.00 Build 0)  -->
<svg version="1.1" id="Слой_1" xmlns="http://www.w3.org/2000/svg" xmlns:xlink="http://www.w3.org/1999/xlink" x="0px" y="0px"
	 viewBox="0 0 270.2 270.2" style="enable-background:new 0 0 270.2 270.2;" xml:space="preserve">
<style type="text/css">
	.st0{fill:#D6001C;}
</style>
<path class="st0" d="M255.1,175.9c-14.5-14.5-35.7-19.9-55.4-14.2L182.1,144l83.2-83.2c8.5-8.5,8.5-22.2,0-30.7L240.1,4.9
	c-4.1-4.1-9.5-6.4-15.3-6.4l0,0c-5.8,0-11.2,2.2-15.3,6.4l-83.2,83.2l-17.6-17.6c4.1-14.1,2.6-28.9-4.3-41.9
	c-7-13.3-18.8-23-33.1-27.4C58.3-2.8,44.4-2,32,3.4c-3.4,1.5-5,5.5-3.5,8.9c0.3,0.8,0.8,1.5,1.4,2.1L54,38.5L38.4,54.2L14.3,30.1
	c-2.6-2.6-6.9-2.6-9.6,0c-0.6,0.6-1.1,1.3-1.4,2.1c-6,13.7-6.4,29-1,43s16,25,29.7,31.1c12.1,5.3,25.6,6.2,38.3,2.5l17.6,17.6
	l-63.5,63.5c-0.7,0.7-1.3,1.7-1.6,2.7l-23,69.3c-1.2,3.5,0.7,7.4,4.3,8.6c1.4,0.5,2.9,0.5,4.3,0l69.3-23c1-0.4,1.9-0.9,2.7-1.7
	l63.5-63.5l17.6,17.7c-4.1,14.1-2.6,28.9,4.3,41.9c7,13.3,18.8,23,33.1,27.4c5.4,1.7,11,2.5,16.5,2.5c7.7,0,15.5-1.6,22.6-4.8
	c3.4-1.5,5-5.5,3.5-8.9c-0.3-0.8-0.8-1.5-1.4-2.1L216,231.9l15.7-15.7l24.1,24.1c2.6,2.6,6.9,2.6,9.6,0c0.6-0.6,1.1-1.3,1.4-2.1
	C276.2,216.9,271.6,192.4,255.1,175.9L255.1,175.9z M34.8,247.4l-17.9,5.9l5.9-17.9L34.8,247.4z M201.6,227c-1.3,1.3-2,3-2,4.8
	s0.7,3.5,2,4.8l20.9,21c-22,3.7-43.4-10.3-48.6-32.3c-2-8.3-1.4-16.9,1.6-24.9c0.9-2.5,0.3-5.3-1.6-7.2l-20.6-20.6l19.1-19.1
	l20.6,20.6c1.9,1.9,4.7,2.5,7.2,1.5c10.6-4,22.2-3.7,32.6,1s18.3,13.1,22.4,23.8c2.7,7.1,3.4,14.8,2.2,22.2l-21-21
	c-2.6-2.6-6.9-2.6-9.6,0L201.6,227z M216.5,63.3l13.6,13.6L75.6,231.4L62,217.8L216.5,63.3z M219,14.4c3.1-3.2,8.3-3.2,11.4-0.1
	l25.3,25.3c1.5,1.5,2.4,3.6,2.4,5.7s-0.8,4.2-2.4,5.8l-16.1,16.1l-36.8-36.8L219,14.4L219,14.4z M63,238l-13.8,4.6L27.6,221
	l4.6-13.8L63,238z M38.9,194.6L193.4,40.1L207,53.7L52.5,208.2L38.9,194.6z M68.4,43.3c2.6-2.6,2.6-6.9,0-9.6L47.5,12.8
	C69.5,9,90.9,23,96.1,45c2,8.3,1.4,17-1.6,25c-0.9,2.5-0.3,5.3,1.5,7.2l20.6,20.6l-19.1,19.1L77,96.2c-1.9-1.9-4.7-2.5-7.2-1.5
	c-10.6,4-22.2,3.7-32.6-1S18.9,80.5,14.8,69.9c-2.7-7.1-3.4-14.8-2.2-22.2l20.9,20.9c2.6,2.6,6.9,2.6,9.6,0L68.4,43.3z"/>
</svg>
