<svg id="Слой_1" data-name="Слой 1" xmlns="http://www.w3.org/2000/svg" viewBox="0 0 270.21 270.21">
  <defs>
    <style>
      .cls-1 {
        fill: #0f0fea;
      }
    </style>
  </defs>
  <path class="cls-1" d="M773.85,696.43a54.78,54.78,0,0,0-54.76-13.59L699.8,663.55l84.29-84.29a20.18,20.18,0,0,0,0-28.54l-25.3-25.29a20.16,20.16,0,0,0-28.54,0L646,609.71l-19.29-19.29a54.67,54.67,0,0,0-74.28-66.13,5.27,5.27,0,0,0-1.6,8.56L576,558l-17.8,17.8L533,550.65a5.28,5.28,0,0,0-8.56,1.61,54.67,54.67,0,0,0,66.13,74.28l19.29,19.29-64.56,64.56a5.29,5.29,0,0,0-1.28,2.08l-23,69.35a5.27,5.27,0,0,0,6.66,6.67l69.29-23a6.32,6.32,0,0,0,2.15-1.31l64.55-64.55L683,719a54.67,54.67,0,0,0,74.28,66.13,5.28,5.28,0,0,0,1.61-8.56l-25.18-25.18,17.8-17.8,25.18,25.18a5.28,5.28,0,0,0,8.56-1.61,54.66,54.66,0,0,0-11.37-60.69ZM737.72,532.89a9.62,9.62,0,0,1,13.61,0l25.29,25.29a9.63,9.63,0,0,1,0,13.62L759.5,588.92,720.59,550Zm-142,83.86a5.23,5.23,0,0,0-5.6-1.2,44.13,44.13,0,0,1-58.57-51.44L554.43,587a5.29,5.29,0,0,0,7.47,0l25.26-25.26a5.29,5.29,0,0,0,0-7.47l-22.91-22.92A44.14,44.14,0,0,1,615.68,590a5.3,5.3,0,0,0,1.2,5.6l21.62,21.62-21.19,21.19Zm117.44-59.27,15.72,15.72-26.72,26.72-39.31,39.31-5.21,5.21h0l-35.24,35.24h0l-50.15,50.15-15.72-15.72ZM534.35,775.16l7.64-23,15.39,15.4Zm34.25-11.34-22.9-22.9,5.64-17,34.27,34.27ZM595.4,753l-15.73-15.72,50.15-50.16h0l35.23-35.23,0,0,5.22-5.22,39.3-39.31,26.72-26.72L752,596.39Zm182.73-7.76-22.92-22.92a5.29,5.29,0,0,0-7.46,0l-25.26,25.27a5.26,5.26,0,0,0,0,7.46L745.4,778A44.13,44.13,0,0,1,694,719.42a5.29,5.29,0,0,0-1.21-5.6L671.15,692.2,692.34,671,714,692.63a5.25,5.25,0,0,0,5.6,1.2,44.13,44.13,0,0,1,58.57,51.44Z" transform="translate(-519.79 -519.51)"/>
</svg>
