<?xml version="1.0" encoding="utf-8"?>
<!-- Generator: Adobe Illustrator 24.1.2, SVG Export Plug-In . SVG Version: 6.00 Build 0)  -->
<svg version="1.1" id="Слой_1" xmlns="http://www.w3.org/2000/svg" xmlns:xlink="http://www.w3.org/1999/xlink" x="0px" y="0px"
	 viewBox="0 0 434.5 434.5" style="enable-background:new 0 0 434.5 434.5;" xml:space="preserve">
<style type="text/css">
	.st0{fill:#D6001C;}
</style>
<path class="st0" d="M370.8,63.6c-84.8-84.8-222.4-84.8-307.2,0s-84.8,222.4,0,307.2s222.4,84.8,307.2,0
	c40.7-40.7,63.6-96,63.6-153.6C434.6,159.6,411.7,104.3,370.8,63.6L370.8,63.6z M108.9,375.4c10.5-59.8,67.6-99.8,127.4-89.2
	c45.5,8,81.2,43.7,89.2,89.2C260.3,420.2,174.2,420.2,108.9,375.4L108.9,375.4z M148.2,190c0-38.1,30.9-69.1,69.1-69.1
	c38.1,0,69.1,30.9,69.1,69.1S255.4,259,217.2,259l0,0C179.1,259,148.2,228.1,148.2,190L148.2,190z M347.6,357.7
	c-11.3-40.1-40.4-72.7-78.9-88.5c43.8-28.4,56.2-87,27.8-130.8c-28.4-43.8-87-56.2-130.8-27.8s-56.2,87-27.8,130.8
	c7.2,11.1,16.7,20.6,27.8,27.8c-38.5,15.9-67.5,48.5-78.9,88.5c-39.2-36.2-61.4-87.2-61.4-140.5c0-105.8,86-191.8,191.8-191.8
	S409,111.5,409,217.2C409,270.6,386.8,321.5,347.6,357.7z"/>
</svg>
