<svg id="Слой_1" data-name="Слой 1" xmlns="http://www.w3.org/2000/svg" viewBox="0 0 434.46 434.46">
  <defs>
    <style>
      .cls-1 {
        fill: #0f0fea;
      }
    </style>
  </defs>
  <path class="cls-1" d="M670.38,374.83A217.24,217.24,0,1,0,734,528.44a215.82,215.82,0,0,0-63.62-153.61ZM408.44,686.6a110,110,0,0,1,216.66,0,191.39,191.39,0,0,1-216.66,0ZM447.7,501.17a69.07,69.07,0,1,1,69.07,69.07,69.14,69.14,0,0,1-69.07-69.07ZM647.15,668.94a135.68,135.68,0,0,0-78.87-88.55,94.53,94.53,0,1,0-103,0,135.74,135.74,0,0,0-78.87,88.55A191.32,191.32,0,0,1,325,528.44c0-105.75,86-191.78,191.77-191.78s191.77,86,191.77,191.78a191.32,191.32,0,0,1-61.39,140.5Zm0,0" transform="translate(-299.54 -311.21)"/>
</svg>
