<?xml version="1.0" encoding="utf-8"?>
<!-- Generator: Adobe Illustrator 24.1.2, SVG Export Plug-In . SVG Version: 6.00 Build 0)  -->
<svg version="1.1" id="Слой_1" xmlns="http://www.w3.org/2000/svg" xmlns:xlink="http://www.w3.org/1999/xlink" x="0px" y="0px"
	 viewBox="0 0 363.2 319.3" style="enable-background:new 0 0 363.2 319.3;" xml:space="preserve">
<style type="text/css">
	.st0{fill:#D6001C;}
</style>
<path class="st0" d="M352.7,42.6h-96.5V31.9c0-17.6-14.3-31.8-31.9-31.9H139c-17.6,0-31.9,14.3-31.9,31.9v10.7H10.6
	C4.8,42.6,0,47.3,0,53.2v234.1c0,17.6,14.3,31.9,31.9,31.9h299.4c17.6,0,31.9-14.3,31.9-31.9V53.4C362.8,46.4,358.5,42.6,352.7,42.6
	z M128.4,31.9c0-5.9,4.8-10.6,10.6-10.6h85.2c5.9,0,10.6,4.8,10.6,10.6v10.7H128.4V31.9z M337.8,63.9l-33,99.1
	c-1.4,4.3-5.5,7.3-10.1,7.3h-59.9v-10.7c0-5.9-4.7-10.6-10.6-10.6H139c-5.9,0-10.6,4.8-10.6,10.6l0,0v10.7H68.5
	c-4.6,0-8.7-2.9-10.1-7.3l-33-99.1H337.8z M213.5,170.3v21.3h-63.8v-21.3H213.5z M342,287.3c0,5.9-4.8,10.6-10.7,10.6H31.9
	c-5.9,0-10.7-4.7-10.7-10.6c0,0,0,0,0,0V118.8l17,50.9c4.3,13,16.5,21.8,30.3,21.8h59.9v10.6c0,5.9,4.8,10.6,10.6,10.6l0,0h85.2
	c5.9,0,10.6-4.8,10.6-10.6l0,0v-10.6h59.9c13.7,0,26-8.8,30.3-21.8l17-50.9L342,287.3z"/>
</svg>
