<svg id="Слой_1" data-name="Слой 1" xmlns="http://www.w3.org/2000/svg" viewBox="0 0 363.24 319.25">
  <defs>
    <style>
      .cls-1 {
        fill: #0f0fea;
      }
    </style>
  </defs>
  <path class="cls-1" d="M872.42,564.49H775.87V553.84A32,32,0,0,0,744,521.92H658.81a32,32,0,0,0-31.92,31.92v10.65H530.4a10.67,10.67,0,0,0-10.64,10.64V809.25a32,32,0,0,0,31.93,31.92H851.07A32,32,0,0,0,883,809.25V575.31c-.41-7-4.71-10.78-10.58-10.82ZM648.17,553.84a10.66,10.66,0,0,1,10.64-10.64H744a10.66,10.66,0,0,1,10.64,10.64v10.65H648.17Zm209.42,31.93-33.05,99.14a10.62,10.62,0,0,1-10.09,7.28H754.59V681.54A10.64,10.64,0,0,0,744,670.9H658.81a10.64,10.64,0,0,0-10.64,10.64v10.65H588.31a10.65,10.65,0,0,1-10.1-7.28l-33-99.14ZM733.31,692.19v21.28H669.46V692.19ZM861.72,809.25a10.66,10.66,0,0,1-10.65,10.64H551.69A10.66,10.66,0,0,1,541,809.25V640.7l17,50.94a31.9,31.9,0,0,0,30.29,21.83h59.86v10.64a10.64,10.64,0,0,0,10.64,10.64H744a10.64,10.64,0,0,0,10.64-10.64V713.47h59.86a31.9,31.9,0,0,0,30.29-21.83l17-50.94Zm0,0" transform="translate(-519.76 -521.92)"/>
</svg>
