<svg id="Слой_1" data-name="Слой 1" xmlns="http://www.w3.org/2000/svg" viewBox="0 0 795.32 186.71">
  <defs>
    <style>
      .cls-1 {
        fill: #057be9;
      }
    </style>
  </defs>
  <g>
    <path class="cls-1" d="M780.64,446.31A93.36,93.36,0,1,0,874,539.67,93.35,93.35,0,0,0,780.64,446.31Zm-13.42,76a59.75,59.75,0,0,0-6.54-2.06,23.54,23.54,0,0,0-5.67-.64,16.11,16.11,0,0,0-13.21,6q-4.89,6-4.87,15.24v36.47H718.11l0-73.22h17.65v9.78h1.15a21.52,21.52,0,0,1,8.51-8.57A24.41,24.41,0,0,1,758,502a25.73,25.73,0,0,1,9.19,1.58Zm76,22.39a37,37,0,0,1-2.76,14.71,25.93,25.93,0,0,1-7.54,10.22,33.92,33.92,0,0,1-10.85,5.78,42.55,42.55,0,0,1-13,1.94,45.79,45.79,0,0,1-10.55-1.19,33.91,33.91,0,0,1-9.36-3.77,29.14,29.14,0,0,1-7.52-6.33,28,28,0,0,1-5-9.22,38.23,38.23,0,0,1-1.83-12.14v-41h18.9V543c0,5.67,1.41,10,4.19,12.7s6.53,4.16,11.15,4.16,8.37-1.4,11.15-4.16,4.19-7,4.19-12.7V503.71H843.2Z" transform="translate(-78.67 -446.31)"/>
    <g>
      <path class="cls-1" d="M78.67,493.81h21.68v12h1.4a26.7,26.7,0,0,1,10.45-10.52,30,30,0,0,1,15.52-4.19A31.66,31.66,0,0,1,139,493v23.08a77.81,77.81,0,0,0-8-2.52,29.15,29.15,0,0,0-7-.79q-10.22,0-16.21,7.41t-6,18.7V583.7H78.72Z" transform="translate(-78.67 -446.31)"/>
      <path class="cls-1" d="M265.72,493.85h21.67v11.27h1.46a30.18,30.18,0,0,1,11.37-10.32,33.64,33.64,0,0,1,15.92-3.8,30.2,30.2,0,0,1,16.58,4.49,25.52,25.52,0,0,1,10,11.36,34,34,0,0,1,12.06-11.46A35.71,35.71,0,0,1,372.9,491q15.33,0,23.36,9.42t8,25.47V583.7H381.38V530.11q0-8.46-4-13.05t-11-4.57A17.12,17.12,0,0,0,352,519.64q-5.36,7.14-5.36,18.77v45.27H323.59V530.09q0-8.48-4.15-13t-11.74-4.58a16.09,16.09,0,0,0-13.65,7.15q-5.19,7.15-5.2,18.78v45.26H265.76Z" transform="translate(-78.67 -446.31)"/>
      <path class="cls-1" d="M425.59,493.92h21.69v10.9h1.4A29.64,29.64,0,0,1,459.43,495a32.64,32.64,0,0,1,16.21-4,41.6,41.6,0,0,1,37.72,23.08,56.83,56.83,0,0,1,0,49.45,42.06,42.06,0,0,1-15.58,16.92,41.58,41.58,0,0,1-22.12,6.09,33.82,33.82,0,0,1-16.31-3.87A27.3,27.3,0,0,1,448.74,573h-1.45l1.42,12.69v36.14H425.62Zm58.21,68a24.44,24.44,0,0,0,9-9.35,29.89,29.89,0,0,0,0-27.48,24,24,0,0,0-21.19-12.51,23.61,23.61,0,0,0-12,3.27,23.93,23.93,0,0,0-9,9.22,29.85,29.85,0,0,0,0,27.49,24.48,24.48,0,0,0,9,9.33,23,23,0,0,0,12,3.37A23.37,23.37,0,0,0,483.8,561.93Z" transform="translate(-78.67 -446.31)"/>
      <path class="cls-1" d="M537.34,493.8h23.11l0,89.9H537.41Z" transform="translate(-78.67 -446.31)"/>
      <path class="cls-1" d="M606.82,538.07l-31-44.23h27.32l17.07,25.7h1.07l16-25.75H665.5L634,538.05l31.57,45.63H638.22l-17.29-26.26h-1L603,583.7H575.65Z" transform="translate(-78.67 -446.31)"/>
      <path class="cls-1" d="M222.51,493.84v10.9h-1.4A29.56,29.56,0,0,0,210.36,495a32.64,32.64,0,0,0-16.21-4,41.59,41.59,0,0,0-37.74,23.08,56.83,56.83,0,0,0,0,49.45A42.19,42.19,0,0,0,172,580.42a41.67,41.67,0,0,0,22.12,6.09,33.69,33.69,0,0,0,14.2-2.86c.71-.31,1.41-.65,2.11-1A27.31,27.31,0,0,0,221,573h1.48l-1.2,10.7h22.88l0-89.81Zm-3.36,58.64a24.48,24.48,0,0,1-9,9.34,23,23,0,0,1-12,3.37,23.37,23.37,0,0,1-12.2-3.33,24.41,24.41,0,0,1-9-9.35A29.83,29.83,0,0,1,177,525a24,24,0,0,1,21.17-12.52,23.49,23.49,0,0,1,12,3.26,23.89,23.89,0,0,1,9,9.22A29.85,29.85,0,0,1,219.15,552.48Z" transform="translate(-78.67 -446.31)"/>
      <rect class="cls-1" x="458.67" y="11.16" width="23.16" height="23.16"/>
    </g>
  </g>
</svg>
