<svg id="Слой_1" data-name="Слой 1" xmlns="http://www.w3.org/2000/svg" viewBox="0 0 459.24 454.63">
  <defs>
    <style>
      .cls-1 {
        fill: #0f0fea;
      }
    </style>
  </defs>
  <path class="cls-1" d="M743.66,642.74l31.42-31.42a51,51,0,0,0-21.26-84.91,51,51,0,0,0-41.15-81.2l-1.71,0a50.94,50.94,0,0,0-52.65-52.65c0-.57,0-1.15,0-1.72a51,51,0,0,0-87.09-36.07l-10.86,10.86L549.52,354.8a51,51,0,0,0-87,37.78c-.58,0-1.15-.05-1.73-.05a50.94,50.94,0,0,0-50.95,52.72c-.58,0-1.15,0-1.73,0a51,51,0,0,0-41.15,81.19,51.06,51.06,0,0,0-21.4,84.78l.15.15,31.46,31.46.14.13a50.52,50.52,0,0,0,6,5.16L374,657.39a45.08,45.08,0,0,0-13,34.72,52.4,52.4,0,0,0,15.51,34.35l53.21,53.22a50.69,50.69,0,0,0,71.61,0l24.74-24.74a163,163,0,0,0,68.56,0l24.73,24.73a50.69,50.69,0,0,0,71.61,0l53.22-53.22c19.74-19.74,22-49.62,5-66.61l-11.34-11.33,5.6-5.6.18-.18ZM496.84,374.27a23.48,23.48,0,0,1,33.21,0l42.14,42.14a23.49,23.49,0,0,1-16.6,40.09h0a23.34,23.34,0,0,1-16.6-6.88l-42.14-42.13-.1-.1a23.52,23.52,0,0,1,.09-33.12ZM444.1,460.09a23.48,23.48,0,0,1,33.26-33.15h0l.05,0,42.09,42.09a.3.3,0,0,0,.08.08l10.46,10.46a23.48,23.48,0,1,1-33.2,33.21l-.17-.16-10.33-10.33,0,0-42.14-42.14Zm-52.61,19.53a23.49,23.49,0,0,1,33.21,0l42.18,42.18A23.48,23.48,0,0,1,433.63,555l-.16-.16L391.62,513l-.13-.14a23.48,23.48,0,0,1,0-33.21ZM365.29,592c-.05-.06-.11-.11-.16-.16a23.48,23.48,0,1,1,33.23-33.18L430,590.24a23.48,23.48,0,0,1-16.59,40.09h0a24.12,24.12,0,0,1-3.41-.24l-.25-.05a23.26,23.26,0,0,1-12.84-6.49l-.11-.11ZM525.35,726.47l-.35-.07c-.27-.07-.55-.13-.82-.18l-.62-.09-.68-.07-.73,0h-.58c-.26,0-.52,0-.78,0l-.55,0-.75.11c-.2,0-.39.07-.59.12s-.45.1-.67.16l-.64.19-.59.2-.68.28c-.18.07-.36.16-.53.24s-.45.22-.66.34l-.53.32c-.2.12-.4.24-.59.38s-.39.28-.58.42l-.47.37c-.22.19-.43.38-.64.59l-.25.22L481.9,760.21a23.12,23.12,0,0,1-32.67,0L396,707a24.9,24.9,0,0,1-7.48-16.29,17.88,17.88,0,0,1,5-13.84l19-19,.87,0h0a51,51,0,0,0,47.49-69.6,50.95,50.95,0,0,0,39.85-42.63,51.42,51.42,0,0,0,12.74,1.6h0a51,51,0,0,0,51-51,51.32,51.32,0,0,0-1.6-12.72,50.57,50.57,0,0,0,28.79-14.42,51.08,51.08,0,0,0,0-72.15l-11.81-11.81,10.86-10.86a23.48,23.48,0,1,1,33.21,33.2,13.77,13.77,0,1,0,19.47,19.47,23.48,23.48,0,1,1,33.2,33.22,13.77,13.77,0,0,0,19.47,19.47,23.48,23.48,0,0,1,33.39,33c-.06.07-.13.12-.18.19l-19.75,19.74a13.79,13.79,0,0,0-1.12,18.21l.71.91a13.77,13.77,0,0,0,17.9,3.35,23.49,23.49,0,0,1,28.6,36.8L724,623.44l-.18.19L656,691.46a135.73,135.73,0,0,1-130.65,35Zm204.4-47.15c6,6,3.71,19-5,27.67l-53.22,53.22a23.12,23.12,0,0,1-32.67,0l-14.65-14.65a162.84,162.84,0,0,0,51.25-34.63L718.41,668Zm0,0" transform="translate(-330.76 -339.86)"/>
</svg>
