<?xml version="1.0" encoding="utf-8"?>
<!-- Generator: Adobe Illustrator 24.1.2, SVG Export Plug-In . SVG Version: 6.00 Build 0)  -->
<svg version="1.1" id="Слой_1" xmlns="http://www.w3.org/2000/svg" xmlns:xlink="http://www.w3.org/1999/xlink" x="0px" y="0px"
	 viewBox="0 0 459.2 454.6" style="enable-background:new 0 0 459.2 454.6;" xml:space="preserve">
<style type="text/css">
	.st0{fill:#D6001C;}
</style>
<path class="st0" d="M412.9,302.9l31.4-31.4c19.9-19.9,20-52.2,0.1-72.1c-5.9-6-13.3-10.3-21.3-12.8c16.7-22.7,11.8-54.6-10.9-71.3
	c-8.8-6.4-19.4-9.9-30.3-9.9h-1.7c1-28.1-21.1-51.7-49.2-52.6c-1.2,0-2.3,0-3.5,0c0-0.6,0-1.1,0-1.7c0-28.2-22.8-51-51-51
	c-13.6,0-26.6,5.4-36.1,15l-10.9,10.9l-10.8-10.8C198.8-5,166.5-4.9,146.6,15c-10,10-15.3,23.6-14.9,37.7c-0.6,0-1.1,0-1.7,0
	c-28.1,0-51,22.8-51,50.9c0,0.6,0,1.2,0,1.8c-0.6,0-1.1,0-1.7,0c-28.2,0-51,22.8-51,51c0,10.9,3.5,21.5,9.9,30.2
	c-27,8.2-42.2,36.7-34,63.7c2.4,7.9,6.7,15.2,12.6,21.1l0.1,0.2L46.4,303l0.1,0.1c1.9,1.9,3.9,3.6,6,5.2l-9.3,9.3
	c-9.1,9.2-13.8,21.8-13,34.7c0.7,13,6.3,25.2,15.5,34.3L99,439.8c19.8,19.7,51.8,19.7,71.6,0l24.7-24.7c22.6,4.9,46,4.9,68.6,0
	l24.7,24.7c19.8,19.7,51.8,19.7,71.6,0l53.2-53.2c19.7-19.7,22-49.6,5-66.6l-11.3-11.3l5.6-5.6L412.9,302.9L412.9,302.9z
	 M166.1,34.4c9.2-9.2,24-9.2,33.2,0c0,0,0,0,0,0l42.1,42.1c9.2,9.2,9.2,24.1,0,33.2c-4.4,4.4-10.4,6.9-16.6,6.9l0,0
	c-6.2,0-12.2-2.5-16.6-6.9l-42.1-42.1l-0.1-0.1C156.9,58.3,157,43.6,166.1,34.4L166.1,34.4z M113.3,120.2c-9.1-9.2-9-24.1,0.3-33.2
	c9.2-9,23.9-9,33,0.1l0,0h0l42.1,42.1c0,0,0,0.1,0.1,0.1l10.5,10.5c9.2,9.1,9.3,24,0.2,33.2c-9.1,9.2-24,9.3-33.2,0.2
	c-0.1-0.1-0.1-0.1-0.2-0.2l-0.2-0.2l-10.3-10.3l0,0l-42.1-42.1L113.3,120.2z M60.7,139.8c9.2-9.2,24-9.2,33.2,0l42.2,42.2
	c9.2,9.2,9.2,24.1,0,33.2c-9.2,9.2-24.1,9.2-33.2,0l0,0l-0.2-0.2l-41.9-41.8l-0.1-0.1C51.6,163.8,51.6,149,60.7,139.8
	C60.7,139.8,60.7,139.8,60.7,139.8L60.7,139.8z M34.5,252.1c0-0.1-0.1-0.1-0.2-0.2c-9.2-9.1-9.3-24-0.2-33.2
	c9.1-9.2,24-9.3,33.2-0.2c0.1,0.1,0.1,0.1,0.2,0.2l31.6,31.6c9.2,9.2,9.2,24,0,33.2c-4.4,4.4-10.4,6.9-16.6,6.9l0,0
	c-1.1,0-2.3-0.1-3.4-0.2l-0.3,0c-4.9-0.8-9.4-3-12.8-6.5l-0.1-0.1L34.5,252.1z M194.6,386.6l-0.3-0.1c-0.3-0.1-0.5-0.1-0.8-0.2
	l-0.6-0.1l-0.7-0.1h-0.7h-0.6c-0.3,0-0.5,0-0.8,0h-0.5l-0.8,0.1c-0.2,0-0.4,0.1-0.6,0.1s-0.5,0.1-0.7,0.2l-0.6,0.2l-0.6,0.2
	l-0.7,0.3c-0.2,0.1-0.4,0.2-0.5,0.2s-0.5,0.2-0.7,0.3l-0.5,0.3c-0.2,0.1-0.4,0.2-0.6,0.4s-0.4,0.3-0.6,0.4l-0.5,0.4
	c-0.2,0.2-0.4,0.4-0.6,0.6l-0.3,0.2l-30.2,30.2c-9,9-23.6,9-32.7,0l-53.2-53.2c-4.4-4.3-7.1-10.1-7.5-16.3c-0.4-5.1,1.4-10.2,5-13.8
	l19-19h0.9l0,0c28.2,0,51-22.8,51-51c0-6.4-1.2-12.7-3.5-18.6c20.9-4.4,36.8-21.5,39.9-42.6c4.2,1.1,8.4,1.6,12.7,1.6l0,0
	c28.2,0,51-22.8,51-51c0-4.3-0.5-8.6-1.6-12.7c10.9-1.5,21-6.6,28.8-14.4c19.9-19.9,19.9-52.2,0-72.1l-11.8-11.8l10.9-10.9
	c9.1-9.2,24-9.3,33.2-0.2c9.2,9.1,9.3,24,0.2,33.2c-0.1,0.1-0.1,0.1-0.2,0.2c-5.5,5.3-5.7,14-0.4,19.5c5.3,5.5,14,5.7,19.5,0.4
	c0.1-0.1,0.3-0.3,0.4-0.4c9.2-9.2,24-9.2,33.2,0c9.2,9.2,9.2,24,0,33.2c-5.3,5.5-5.1,14.2,0.4,19.5c5.3,5.1,13.8,5.1,19.1,0
	c9.3-9,24.2-8.7,33.2,0.6c8.7,9,8.8,23.3,0.2,32.4c-0.1,0.1-0.1,0.1-0.2,0.2l-19.8,19.7c-4.9,4.9-5.4,12.7-1.1,18.2l0.7,0.9
	c4.3,5.5,11.9,6.9,17.9,3.3c11.2-6.6,25.6-2.9,32.2,8.2c5.5,9.2,4,21-3.6,28.6l-31.6,31.6l-0.2,0.2l-67.8,67.8
	C291,385.7,241.3,399,194.6,386.6L194.6,386.6z M399,339.5c6,6,3.7,19-5,27.7l-53.2,53.2c-9,9-23.6,9-32.7,0l-14.7-14.7
	c19.1-8.2,36.5-19.9,51.3-34.6l42.9-42.9L399,339.5z"/>
</svg>
