<svg id="Слой_1" data-name="Слой 1" xmlns="http://www.w3.org/2000/svg" viewBox="0 0 455.85 178.01">
  <defs>
    <style>
      .cls-1 {
        fill: #171c16;
      }

      .cls-2 {
        fill: #22ae22;
      }
    </style>
  </defs>
  <g>
    <g>
      <g>
        <path class="cls-1" d="M631.14,550.05v60.32H612.49V550.05H586.16V533.8h71.45v16.25Z" transform="translate(-454.15 -506.05)"/>
        <path class="cls-1" d="M691.15,608.11v31.14H672.5v-102c9.17-3.76,20.31-5.71,33.54-5.71s22.41,3,28.13,8.87,8.57,16.4,8.57,31.59c0,14.89-2.85,25.27-8.42,31.44q-8.36,9-24.82,9A41.14,41.14,0,0,1,691.15,608.11Zm0-58.21v39.41c0,4.36,6.62,7.37,15,7.37,6.62,0,11.13-1.66,13.69-5.12s3.76-9.77,3.76-19.1c0-10.23-1.2-16.85-3.76-20-2.41-3.16-7.07-4.82-13.84-4.82Q697,547.64,691.15,549.9Z" transform="translate(-454.15 -506.05)"/>
        <path class="cls-1" d="M824,540.27c6,6.62,8.12,18.2,7.52,36.7H781.55c.15,7.82,1.65,13.09,4.66,15.8,3,2.55,8.12,3.91,15.19,3.91a74.67,74.67,0,0,0,21.51-3.16l3,14.74a82.45,82.45,0,0,1-26.77,4.21c-11.89,0-21.06-3-27.53-9.17S762,586.6,762,571.71c0-29.33,12-40.16,35.64-40.16C810.43,531.55,818.1,533.65,824,540.27ZM781.7,562.68h31.44c-.3-6.61-1.51-11-3.46-13.08-2-2.26-5.72-3.31-11.28-3.31C786.81,546.29,782.9,550.05,781.7,562.68Z" transform="translate(-454.15 -506.05)"/>
        <path class="cls-1" d="M910,608.56c-6.47,2.56-14.29,3.91-23.31,3.91-12.49,0-21.81-3-28.28-9.17s-9.63-16.7-9.63-31.59,3.16-25.27,9.63-31.14,15.79-9,28.28-9c9,0,16.84,1.2,23.31,3.61l-4.21,15.94A49.53,49.53,0,0,0,888,547.79c-14.29,0-19.25,3-20,24.22q0,14.44,4.52,19.4c3.16,3.16,8.27,4.82,15.49,4.82a46.92,46.92,0,0,0,17.75-3.61Z" transform="translate(-454.15 -506.05)"/>
      </g>
      <g>
        <path class="cls-2" d="M491.32,596.48a66.09,66.09,0,0,0,9.91,16.62c.86-.31,1.64-.62,2.5-1A47.75,47.75,0,0,0,515,605.38a51.89,51.89,0,0,1-10.46-17.56,48.16,48.16,0,0,0-13.34,8.51c0,.07.08.07.08.15Zm0,0" transform="translate(-454.15 -506.05)"/>
        <path class="cls-2" d="M456.49,633.08a70.78,70.78,0,0,0,56,.78c28-11.46,43.39-38.8,43.39-64.84,0-24.3-12.44-49.49-33-62.32a3.76,3.76,0,0,0-4.21,0c-18.18,11.39-30.35,32.82-32.54,55.29A71.66,71.66,0,0,1,503,555.6,55.33,55.33,0,0,1,518,529a4.09,4.09,0,0,1,5.47,0,57.29,57.29,0,0,1,16.77,40,54.34,54.34,0,0,1-33.39,50.25,55.24,55.24,0,0,1-33.19,3.12,3.94,3.94,0,0,1-3-4.53c4.66-23.94,26.11-41,50.05-41A49.47,49.47,0,0,1,531.5,578a38,38,0,0,0,.94-9,43.65,43.65,0,0,0-.55-6.87,66.94,66.94,0,0,0-11.15-.94h-.16c-36.44,0-66.43,29.82-66.43,66.33v2a4,4,0,0,0,2.34,3.51Zm0,0" transform="translate(-454.15 -506.05)"/>
        <path class="cls-2" d="M563.16,576.72a77.61,77.61,0,0,1-4,18,50.87,50.87,0,0,1,11.58,23.12,3.9,3.9,0,0,1-3,4.55,57,57,0,0,1-11.93,1.25,54.17,54.17,0,0,1-13-1.6,79,79,0,0,1-13.92,11.75A70.42,70.42,0,0,0,585,633c3-1.36,2.16-4.69,2.32-5.5a66.71,66.71,0,0,0-24.16-50.82Zm0,0" transform="translate(-454.15 -506.05)"/>
      </g>
    </g>
    <g>
      <path class="cls-1" d="M513,665.39a110.41,110.41,0,0,1-7.24,18.67h-3.67c.66-1.17,1.38-2.66,2.21-4.45a122.75,122.75,0,0,0-4.8-14.22h3.44a93.58,93.58,0,0,1,3.35,10.28,97.43,97.43,0,0,0,3.36-10.28Z" transform="translate(-454.15 -506.05)"/>
      <path class="cls-1" d="M525.28,678.63a11.27,11.27,0,0,1-4.12.69,7,7,0,0,1-5-1.62c-1.14-1.1-1.7-3-1.7-5.59s.56-4.48,1.7-5.52a7.11,7.11,0,0,1,5-1.59,11.77,11.77,0,0,1,4.12.64l-.74,2.82a8.77,8.77,0,0,0-3.14-.59c-2.53,0-3.41.53-3.54,4.29,0,1.7.26,2.85.79,3.43a3.77,3.77,0,0,0,2.75.86,8.43,8.43,0,0,0,3.14-.64Z" transform="translate(-454.15 -506.05)"/>
      <path class="cls-1" d="M535.67,668.27h-3.44a24.63,24.63,0,0,1-1.46,7.54c-.83,2.21-2.32,3.51-4.24,3.51L526,676c1.73,0,3-3.7,3.3-10.6H539V679h-3.3Z" transform="translate(-454.15 -506.05)"/>
      <path class="cls-1" d="M554.33,665.39a111.26,111.26,0,0,1-7.24,18.67h-3.68c.67-1.17,1.39-2.66,2.21-4.45a122.82,122.82,0,0,0-4.79-14.22h3.44a98.05,98.05,0,0,1,3.35,10.28A97.43,97.43,0,0,0,551,665.39Z" transform="translate(-454.15 -506.05)"/>
      <path class="cls-1" d="M559.57,668.27V679h-3.3V665.39h9.43v2.88Z" transform="translate(-454.15 -506.05)"/>
      <path class="cls-1" d="M570.86,665.39V674a66.34,66.34,0,0,0,5.51-8.63h3.31V679h-3.31v-8.28a64.56,64.56,0,0,1-5.51,8.28h-3.3V665.39Z" transform="translate(-454.15 -506.05)"/>
      <path class="cls-1" d="M598.66,668.27h-3.44a24.63,24.63,0,0,1-1.46,7.54c-.83,2.21-2.32,3.51-4.23,3.51l-.59-3.33c1.73,0,3-3.7,3.3-10.6H602V679h-3.3Z" transform="translate(-454.15 -506.05)"/>
      <path class="cls-1" d="M617,678.26a16.78,16.78,0,0,1-6.13,1.06c-2.16,0-3.67-.32-4.5-.93s-1.22-1.84-1.22-3.6.42-2.95,1.3-3.54a7.17,7.17,0,0,1,4-.9,17.24,17.24,0,0,1,3.36.37,3.13,3.13,0,0,0-.64-2.34,4.45,4.45,0,0,0-2.74-.56,12.39,12.39,0,0,0-4.1.61l-.62-2.72a21.5,21.5,0,0,1,5.41-.71c2.07,0,3.57.39,4.47,1.17s1.39,2.13,1.39,4.1Zm-3.17-5.3a13.09,13.09,0,0,0-2.69-.24c-2,0-2.53.26-2.53,1.94a2.31,2.31,0,0,0,.48,1.76,3.69,3.69,0,0,0,2,.37,8.67,8.67,0,0,0,2.72-.45Z" transform="translate(-454.15 -506.05)"/>
      <path class="cls-1" d="M623.87,665.39v5h5.33v-5h3.3V679h-3.3V673.2h-5.33V679h-3.3V665.39Z" transform="translate(-454.15 -506.05)"/>
      <path class="cls-1" d="M648.9,665.39v10.68h2.61l-.78,6.63H648.1V679H637.87v3.75h-2.66l-.74-6.63h2.42a48.75,48.75,0,0,0,1.89-10.68Zm-3.3,2.88h-3.81a46.58,46.58,0,0,1-1.44,7.8h5.25Z" transform="translate(-454.15 -506.05)"/>
      <path class="cls-1" d="M672.62,665.39V679H653.48V665.39h3.3v10.68h4.63V665.39h3.3v10.68h4.61V665.39Z" transform="translate(-454.15 -506.05)"/>
      <path class="cls-1" d="M687.63,678.26a16.68,16.68,0,0,1-6.12,1.06c-2.16,0-3.67-.32-4.5-.93s-1.22-1.84-1.22-3.6.42-2.95,1.3-3.54a7.17,7.17,0,0,1,4-.9,17.24,17.24,0,0,1,3.36.37,3.13,3.13,0,0,0-.64-2.34,4.46,4.46,0,0,0-2.75-.56,12.47,12.47,0,0,0-4.1.61l-.61-2.72a21.5,21.5,0,0,1,5.41-.71,6.84,6.84,0,0,1,4.47,1.17c.93.77,1.38,2.13,1.38,4.1Zm-3.16-5.3a13.09,13.09,0,0,0-2.69-.24c-2,0-2.53.26-2.53,1.94a2.31,2.31,0,0,0,.48,1.76,3.69,3.69,0,0,0,2,.37,8.67,8.67,0,0,0,2.72-.45Z" transform="translate(-454.15 -506.05)"/>
      <path class="cls-1" d="M701.82,684.06h-3.3v-4.79c-2.79-.14-4.79-.72-6-1.79s-1.78-2.85-1.78-5.37.58-4.24,1.78-5.28,3.2-1.65,6-1.78v-5h3.3v5c2.8.13,4.8.74,6,1.78s1.78,2.8,1.78,5.28-.59,4.28-1.78,5.35-3.2,1.67-6,1.81Zm-6.76-8.52a5.27,5.27,0,0,0,3.46,1.06v-8.86a5.42,5.42,0,0,0-3.48,1c-.59.59-.88,1.73-.88,3.41A4.82,4.82,0,0,0,695.06,675.54Zm10.23-6.76a5.26,5.26,0,0,0-3.47-1v8.86a5.25,5.25,0,0,0,3.44-1.06,4.81,4.81,0,0,0,.93-3.38C706.19,670.48,705.9,669.36,705.29,668.78Z" transform="translate(-454.15 -506.05)"/>
      <path class="cls-1" d="M719.05,668.27V679h-3.3V668.27h-4.66v-2.88h12.65v2.88Z" transform="translate(-454.15 -506.05)"/>
      <path class="cls-1" d="M729,665.39v5h5.32v-5h3.3V679h-3.3V673.2H729V679h-3.3V665.39Z" transform="translate(-454.15 -506.05)"/>
      <path class="cls-1" d="M742.37,677.75c-1-1.07-1.52-3-1.52-5.64s.51-4.5,1.55-5.54,2.66-1.57,4.9-1.57,3.91.53,5,1.57,1.54,2.87,1.54,5.54-.5,4.57-1.54,5.64-2.69,1.57-5,1.57S743.41,678.79,742.37,677.75Zm2.51-9.24a11,11,0,0,0,0,7.27,3.91,3.91,0,0,0,4.87,0,6.87,6.87,0,0,0,.64-3.62c-.11-3.94-.59-4.42-3.09-4.48A2.83,2.83,0,0,0,744.88,668.51Z" transform="translate(-454.15 -506.05)"/>
      <path class="cls-1" d="M760.29,668.27V679H757V665.39h9.42v2.88Z" transform="translate(-454.15 -506.05)"/>
      <path class="cls-1" d="M769.32,677.75c-1-1.07-1.52-3-1.52-5.64s.5-4.5,1.54-5.54S772,665,774.24,665s3.92.53,5,1.57,1.55,2.87,1.55,5.54-.51,4.57-1.55,5.64-2.69,1.57-5,1.57S770.35,678.79,769.32,677.75Zm2.5-9.24c-.4.56-.61,1.76-.61,3.65a7.16,7.16,0,0,0,.61,3.62,3.91,3.91,0,0,0,4.87,0,6.77,6.77,0,0,0,.64-3.62c-.11-3.94-.59-4.42-3.09-4.48A2.84,2.84,0,0,0,771.82,668.51Z" transform="translate(-454.15 -506.05)"/>
      <path class="cls-1" d="M803.71,665.39v10.68h2.61l-.77,6.63h-2.63V679H792.69v3.75H790l-.75-6.63h2.43a48.75,48.75,0,0,0,1.89-10.68Zm-3.3,2.88h-3.8a46.58,46.58,0,0,1-1.44,7.8h5.24Z" transform="translate(-454.15 -506.05)"/>
      <path class="cls-1" d="M811.59,665.39V674a66.22,66.22,0,0,0,5.52-8.63h3.3V679h-3.3v-8.28a65.76,65.76,0,0,1-5.52,8.28h-3.3V665.39Z" transform="translate(-454.15 -506.05)"/>
      <path class="cls-1" d="M834.7,675.35a3.24,3.24,0,0,1-1.51,3.12,11.13,11.13,0,0,1-5.12.85,22,22,0,0,1-5-.51l.69-2.95a13.12,13.12,0,0,0,4.26.64c2.53,0,3.17-.43,3.17-1.79s-.83-1.67-2.93-1.67h-2.08v-2.48h2.08c2,0,2.64-.29,2.64-1.36s-.64-1.38-2.88-1.38a13.34,13.34,0,0,0-4.15.58l-.7-2.87a22.1,22.1,0,0,1,4.9-.53,10.87,10.87,0,0,1,4.9.77,2.79,2.79,0,0,1,1.39,2.71c0,2-.8,3.09-3.25,3.31C833.69,671.92,834.7,673.14,834.7,675.35Z" transform="translate(-454.15 -506.05)"/>
      <path class="cls-1" d="M849.13,678.26a16.68,16.68,0,0,1-6.12,1.06c-2.16,0-3.67-.32-4.5-.93s-1.22-1.84-1.22-3.6.42-2.95,1.3-3.54a7.17,7.17,0,0,1,4-.9,17.24,17.24,0,0,1,3.36.37,3.13,3.13,0,0,0-.64-2.34,4.46,4.46,0,0,0-2.75-.56,12.47,12.47,0,0,0-4.1.61l-.61-2.72a21.5,21.5,0,0,1,5.41-.71,6.84,6.84,0,0,1,4.47,1.17c.93.77,1.38,2.13,1.38,4.1ZM846,673a13.16,13.16,0,0,0-2.69-.24c-2,0-2.53.26-2.53,1.94a2.31,2.31,0,0,0,.48,1.76,3.69,3.69,0,0,0,2,.37,8.67,8.67,0,0,0,2.72-.45Z" transform="translate(-454.15 -506.05)"/>
      <path class="cls-1" d="M856,665.39V674a67.43,67.43,0,0,0,5.51-8.63h3.3V679h-3.3v-8.28A65.63,65.63,0,0,1,856,679h-3.3V665.39Zm1-5c0,1.2.5,1.54,1.75,1.54s1.79-.37,1.79-1.54h2.13c0,2.42-1.33,3.65-4,3.65s-4-1.23-4-3.65Z" transform="translate(-454.15 -506.05)"/>
      <path class="cls-1" d="M871.82,665.39v5h5.32v-5h3.3V679h-3.3V673.2h-5.32V679h-3.3V665.39Z" transform="translate(-454.15 -506.05)"/>
      <path class="cls-1" d="M895.46,678.26a16.7,16.7,0,0,1-6.13,1.06c-2.15,0-3.67-.32-4.49-.93s-1.23-1.84-1.23-3.6.43-2.95,1.31-3.54a7.12,7.12,0,0,1,4-.9,17.23,17.23,0,0,1,3.35.37,3.09,3.09,0,0,0-.64-2.34,4.43,4.43,0,0,0-2.74-.56,12.39,12.39,0,0,0-4.1.61l-.61-2.72a21.48,21.48,0,0,1,5.4-.71q3.12,0,4.47,1.17c.94.77,1.39,2.13,1.39,4.1Zm-3.17-5.3a13,13,0,0,0-2.69-.24c-2,0-2.53.26-2.53,1.94a2.31,2.31,0,0,0,.48,1.76,3.72,3.72,0,0,0,2,.37,8.62,8.62,0,0,0,2.72-.45Z" transform="translate(-454.15 -506.05)"/>
    </g>
  </g>
</svg>
