<svg id="Слой_1" data-name="Слой 1" xmlns="http://www.w3.org/2000/svg" viewBox="0 0 674.38 152.45">
  <defs>
    <style>
      .cls-1 {
        fill: #374dff;
      }
    </style>
  </defs>
  <g>
    <g>
      <path class="cls-1" d="M417.43,557.32l-21.22-63.18h13.54l15.44,48.56,15.34-48.56h13.63l-21.3,63.18Z" transform="translate(-139.14 -464.65)"/>
      <path class="cls-1" d="M464.09,538.28q2.36,8.49,12.73,8.48,6.68,0,10.11-4.51l9.39,5.41q-6.68,9.68-19.68,9.66-11.19,0-18-6.77a24.94,24.94,0,0,1-.09-34.07q6.68-6.83,17.15-6.82a21.52,21.52,0,0,1,16.38,6.86,23.85,23.85,0,0,1,6.46,17,27.45,27.45,0,0,1-.46,4.79Zm-.18-9h23a10.87,10.87,0,0,0-4.11-6.86,11.79,11.79,0,0,0-7.08-2.26,12.3,12.3,0,0,0-7.77,2.39A11.47,11.47,0,0,0,463.91,529.25Z" transform="translate(-139.14 -464.65)"/>
      <path class="cls-1" d="M518.34,520a12.24,12.24,0,0,1,5.37-6.5,16.44,16.44,0,0,1,8.35-2.16v13a13.74,13.74,0,0,0-9.52,2.16q-4.2,2.81-4.2,9.3v21.57H506.7V512.19h11.64Z" transform="translate(-139.14 -464.65)"/>
      <path class="cls-1" d="M563.93,510.93a16.34,16.34,0,0,1,12.23,5q4.83,5,4.83,13.72v27.71H569.34V531.06q0-4.51-2.43-6.91a8.9,8.9,0,0,0-6.5-2.39,9.56,9.56,0,0,0-7.22,2.8q-2.72,2.79-2.71,8.39v24.37H538.83V494.14h11.65v23.1Q554.72,510.92,563.93,510.93Z" transform="translate(-139.14 -464.65)"/>
      <path class="cls-1" d="M629.37,550.42a23.84,23.84,0,1,1,0-33.85,24.08,24.08,0,0,1,0,33.85Zm-25.68-8A11.73,11.73,0,0,0,612.4,546a11.89,11.89,0,0,0,8.76-3.52,13.1,13.1,0,0,0,0-17.87A11.89,11.89,0,0,0,612.4,521a11.73,11.73,0,0,0-8.71,3.52,13.24,13.24,0,0,0,0,17.87Z" transform="translate(-139.14 -464.65)"/>
      <path class="cls-1" d="M684.26,494.14v11.91H667.2v51.27H654.74V506.05h-17V494.14Z" transform="translate(-139.14 -464.65)"/>
      <path class="cls-1" d="M720.91,550.42a23.84,23.84,0,1,1,0-33.85,24.08,24.08,0,0,1,0,33.85Zm-25.68-8a11.71,11.71,0,0,0,8.71,3.52,11.89,11.89,0,0,0,8.76-3.52,13.1,13.1,0,0,0,0-17.87,11.89,11.89,0,0,0-8.76-3.52,11.71,11.71,0,0,0-8.71,3.52,13.21,13.21,0,0,0,0,17.87Z" transform="translate(-139.14 -464.65)"/>
      <path class="cls-1" d="M765.86,510.93h11.65v45.13H765.86V551q-4.25,6.33-13.45,6.32a16.34,16.34,0,0,1-12.23-5q-4.83-5-4.83-13.72V510.93H747v26.26c0,3,.81,5.32,2.43,6.91a8.92,8.92,0,0,0,6.5,2.39,9.6,9.6,0,0,0,7.23-2.8q2.7-2.79,2.7-8.39Z" transform="translate(-139.14 -464.65)"/>
      <path class="cls-1" d="M799.8,520a12.24,12.24,0,0,1,5.37-6.5,16.44,16.44,0,0,1,8.35-2.16v13a13.74,13.74,0,0,0-9.52,2.16q-4.2,2.81-4.2,9.3v21.57H788.16V512.19H799.8Z" transform="translate(-139.14 -464.65)"/>
    </g>
    <g>
      <path class="cls-1" d="M471.21,573.47h2.18v10.1h-2.18v-1.46a4.07,4.07,0,0,1-3.53,1.72,4.72,4.72,0,0,1-3.55-1.55,5.53,5.53,0,0,1,0-7.53,4.71,4.71,0,0,1,3.55-1.54,4.1,4.1,0,0,1,3.53,1.7Zm-5.47,7.36a3.1,3.1,0,0,0,2.28.92,3.07,3.07,0,0,0,2.28-.92,3.39,3.39,0,0,0,0-4.62,3.07,3.07,0,0,0-2.28-.92,3.1,3.1,0,0,0-2.28.92,3.39,3.39,0,0,0,0,4.62Z" transform="translate(-139.14 -464.65)"/>
      <path class="cls-1" d="M487,578.38a2.37,2.37,0,0,1,1.5,2.32,2.7,2.7,0,0,1-.86,2.07,3.47,3.47,0,0,1-2.45.8H480v-10.1h4.76a3.49,3.49,0,0,1,2.42.78,2.59,2.59,0,0,1,.85,2A2.35,2.35,0,0,1,487,578.38Zm-2.38-3h-2.52v2.24h2.52c.89,0,1.33-.37,1.33-1.13S485.46,575.33,484.57,575.33Zm.37,6.34c.91,0,1.37-.4,1.37-1.19a1,1,0,0,0-.37-.82,1.57,1.57,0,0,0-1-.29h-2.89v2.3Z" transform="translate(-139.14 -464.65)"/>
      <path class="cls-1" d="M501.67,573.47v2.1h-3.29v8H496.2v-8h-3.31v-2.1Z" transform="translate(-139.14 -464.65)"/>
      <path class="cls-1" d="M511.54,583.83a5.17,5.17,0,0,1-3.78-1.54,5.36,5.36,0,0,1,0-7.54,5.41,5.41,0,0,1,7.56,0,5.31,5.31,0,0,1-3.78,9.08Zm-2.24-3a3.21,3.21,0,0,0,4.48,0,3.31,3.31,0,0,0,0-4.56,3.21,3.21,0,0,0-4.48,0,3.31,3.31,0,0,0,0,4.56Z" transform="translate(-139.14 -464.65)"/>
      <path class="cls-1" d="M528.59,573.21a4.76,4.76,0,0,1,3.56,1.55,5.56,5.56,0,0,1,0,7.53,4.75,4.75,0,0,1-3.56,1.54,4.1,4.1,0,0,1-3.53-1.7v5.47h-2.18V573.47h2.18v1.46A4.07,4.07,0,0,1,528.59,573.21ZM526,580.83a3.29,3.29,0,0,0,4.56,0,3.39,3.39,0,0,0,0-4.62,3.29,3.29,0,0,0-4.56,0,3.39,3.39,0,0,0,0,4.62Z" transform="translate(-139.14 -464.65)"/>
      <path class="cls-1" d="M544.4,583.83a5.31,5.31,0,1,1,0-10.62,5.24,5.24,0,0,1,2.68.71,4.56,4.56,0,0,1,1.82,1.9L547,576.9a2.6,2.6,0,0,0-1-1.14,3.12,3.12,0,0,0-1.6-.41,3,3,0,0,0-2.23.91,3.29,3.29,0,0,0,0,4.52,3,3,0,0,0,2.23.91,3.11,3.11,0,0,0,1.6-.42,2.75,2.75,0,0,0,1.08-1.14l1.88,1.07a4.77,4.77,0,0,1-1.86,1.92A5.24,5.24,0,0,1,544.4,583.83Z" transform="translate(-139.14 -464.65)"/>
      <path class="cls-1" d="M563.53,583.57h-2.6l-4.14-4.67v4.67h-2.18v-10.1h2.18v4.46l3.92-4.46h2.66l-4.44,4.95Z" transform="translate(-139.14 -464.65)"/>
      <path class="cls-1" d="M576.35,573.47H578v10.1h-2.14v-6.42l-5.16,6.42H569v-10.1h2.14v6.4Z" transform="translate(-139.14 -464.65)"/>
      <path class="cls-1" d="M586.3,579.45a2.74,2.74,0,0,0,1.11,1.76,3.5,3.5,0,0,0,2.12.62,3,3,0,0,0,2.6-1.25l1.8,1a5,5,0,0,1-4.42,2.2,5.38,5.38,0,0,1-4-1.51,5.12,5.12,0,0,1-1.51-3.8,5.16,5.16,0,0,1,5.33-5.31,4.71,4.71,0,0,1,3.64,1.56,5.36,5.36,0,0,1,1.42,3.77,5.88,5.88,0,0,1-.08.91Zm0-1.78h5.93a2.82,2.82,0,0,0-2.88-2.48,3,3,0,0,0-2,.67A3,3,0,0,0,586.28,577.67Z" transform="translate(-139.14 -464.65)"/>
      <path class="cls-1" d="M618.37,583.57h-2.6l-4.14-4.67v4.67h-2.18v-10.1h2.18v4.46l3.91-4.46h2.67l-4.44,4.95Z" transform="translate(-139.14 -464.65)"/>
      <path class="cls-1" d="M630.86,578.38a2.37,2.37,0,0,1,1.5,2.32,2.7,2.7,0,0,1-.86,2.07,3.47,3.47,0,0,1-2.45.8h-5.17v-10.1h4.76a3.49,3.49,0,0,1,2.42.78,2.59,2.59,0,0,1,.85,2A2.35,2.35,0,0,1,630.86,578.38Zm-2.38-3H626v2.24h2.52c.89,0,1.34-.37,1.34-1.13S629.37,575.33,628.48,575.33Zm.37,6.34c.91,0,1.37-.4,1.37-1.19a1,1,0,0,0-.36-.82,1.62,1.62,0,0,0-1-.29H626v2.3Z" transform="translate(-139.14 -464.65)"/>
      <path class="cls-1" d="M639.89,579.45a2.74,2.74,0,0,0,1.11,1.76,3.5,3.5,0,0,0,2.12.62,3,3,0,0,0,2.6-1.25l1.8,1a5,5,0,0,1-4.42,2.2,5.37,5.37,0,0,1-4-1.51,5.31,5.31,0,0,1,3.81-9.11,4.71,4.71,0,0,1,3.65,1.56,5.36,5.36,0,0,1,1.42,3.77,7.47,7.47,0,0,1-.08.91Zm0-1.78h5.93a2.82,2.82,0,0,0-2.89-2.48,3,3,0,0,0-2,.67A2.92,2.92,0,0,0,639.87,577.67Z" transform="translate(-139.14 -464.65)"/>
      <path class="cls-1" d="M658.66,583.83a5.31,5.31,0,1,1,0-10.62,5.24,5.24,0,0,1,2.68.71,4.56,4.56,0,0,1,1.82,1.9l-1.88,1.08a2.6,2.6,0,0,0-1-1.14,3.12,3.12,0,0,0-1.6-.41,3,3,0,0,0-2.23.91,3.29,3.29,0,0,0,0,4.52,3,3,0,0,0,2.23.91,3.11,3.11,0,0,0,1.6-.42,2.75,2.75,0,0,0,1.08-1.14l1.88,1.07a4.77,4.77,0,0,1-1.86,1.92A5.24,5.24,0,0,1,658.66,583.83Z" transform="translate(-139.14 -464.65)"/>
      <path class="cls-1" d="M676.42,573.47v2.1h-3.29v8H671v-8h-3.31v-2.1Z" transform="translate(-139.14 -464.65)"/>
      <path class="cls-1" d="M698.72,573.47v2.1h-3.29v8h-2.18v-8h-3.31v-2.1Z" transform="translate(-139.14 -464.65)"/>
      <path class="cls-1" d="M711.14,573.47h2.32l-3.88,10.42a6.09,6.09,0,0,1-2,2.87,4.31,4.31,0,0,1-2.94.84v-2a2.43,2.43,0,0,0,1.66-.41,3.14,3.14,0,0,0,1-1.52l.06-.14-4.24-10h2.32l3.07,7.35Z" transform="translate(-139.14 -464.65)"/>
      <path class="cls-1" d="M724.58,573.21a4.74,4.74,0,0,1,3.55,1.55,5.56,5.56,0,0,1,0,7.53,4.73,4.73,0,0,1-3.55,1.54,4.09,4.09,0,0,1-3.53-1.7v5.47h-2.18V573.47h2.18v1.46A4.06,4.06,0,0,1,724.58,573.21ZM722,580.83a3.3,3.3,0,0,0,4.57,0,3.41,3.41,0,0,0,0-4.62,3.3,3.3,0,0,0-4.57,0,3.41,3.41,0,0,0,0,4.62Z" transform="translate(-139.14 -464.65)"/>
      <path class="cls-1" d="M740,576.9a3.81,3.81,0,0,1,2.64.92,3.33,3.33,0,0,1,0,4.82,3.77,3.77,0,0,1-2.64.93h-4.4v-10.1h2.18v3.43Zm0,4.71a1.56,1.56,0,0,0,1.08-.39,1.23,1.23,0,0,0,.43-1,1.25,1.25,0,0,0-.43-1,1.6,1.6,0,0,0-1.08-.38H737.8v2.75Zm4.86-8.14h2.18v10.1H744.9Z" transform="translate(-139.14 -464.65)"/>
    </g>
    <path class="cls-1" d="M373.05,571.27a69.65,69.65,0,0,1-24.79-2.61c12.93-21,16.08-39.23,17-49.59,1-12.31-.68-18.76-1.3-20.88-.86-2.89-7.49-24.1-28.71-31.31-15-5.09-27.92-.07-31.32,1.3-1,.4-20.85,8.81-27.41,30-2.68,8.68-2,15.79-1.3,22.19,3.32,30.93,22.83,51.48,24.79,53.5l.74.74a78.35,78.35,0,0,1-82-.74c2-2,21.47-22.59,24.79-53.5.69-6.4,1.38-13.51-1.31-22.19-6.55-21.2-26.42-29.61-27.4-30-3.4-1.37-16.36-6.39-31.32-1.3-21.22,7.21-27.86,28.42-28.71,31.31-.62,2.12-2.35,8.57-1.3,20.88.88,10.36,4,28.54,17,49.59a69.65,69.65,0,0,1-24.79,2.61L139.14,600a93.17,93.17,0,0,0,27.41,0,94.65,94.65,0,0,0,26.08-7.68c10,8.36,33.07,24.36,66.08,24.79,34.55.45,58.73-16.45,68.3-24.38A94.24,94.24,0,0,0,352.17,600a93.17,93.17,0,0,0,27.41,0ZM197.87,552l-1.31,1.31A74.62,74.62,0,0,1,183.51,522c-2.15-13.64,1.3-19.1,2.61-20.88a15.46,15.46,0,0,1,6.53-5.22,15.62,15.62,0,0,1,15.66,2.61c4.11,3.58,4.83,8.68,5.22,11.74C215.77,528.07,201.92,546.79,197.87,552Zm124.94-.11-1.2,1.41a74.58,74.58,0,0,1-15.56-30.15c-3.26-13.42-.26-19.14.9-21a15,15,0,0,1,21.89-4.41C333.24,501,334.37,506,335,509,338.7,526.58,326.43,546.37,322.81,551.89Z" transform="translate(-139.14 -464.65)"/>
    <path class="cls-1" d="M686.93,577.74v1.74h-6.6v-1.74Z" transform="translate(-139.14 -464.65)"/>
  </g>
</svg>
