<svg id="Слой_1" data-name="Слой 1" xmlns="http://www.w3.org/2000/svg" viewBox="0 0 285.3 285.31">
  <defs>
    <style>
      .cls-1 {
        fill: #0f0fea;
      }
    </style>
  </defs>
  <g>
    <path class="cls-1" d="M671.44,485.14A142.62,142.62,0,0,0,472.32,458.3l-10.87-10.88c-3.1-3.11-6-2.07-6.36,2.29l-3.57,39a6.43,6.43,0,0,0,7.22,7.22l39-3.52c4.36-.39,5.4-3.26,2.3-6.36l-11.27-11.29A119.71,119.71,0,0,1,651,648a120.58,120.58,0,0,1-19.67,19A119.69,119.69,0,0,1,439.4,558.72a11.47,11.47,0,1,0-22.79-2.56,142.62,142.62,0,0,0,228.65,129A143.33,143.33,0,0,0,668.7,662.5a142.78,142.78,0,0,0,2.74-177.36Zm0,0" transform="translate(-415.7 -429.4)"/>
    <path class="cls-1" d="M552.74,479.21a9.29,9.29,0,0,0-9.28,9.29V581l84.62,43.74a9.29,9.29,0,1,0,8.53-16.5L562,569.72V488.5a9.29,9.29,0,0,0-9.3-9.29Zm0,0" transform="translate(-415.7 -429.4)"/>
  </g>
</svg>
