<?xml version="1.0" encoding="utf-8"?>
<!-- Generator: Adobe Illustrator 24.1.2, SVG Export Plug-In . SVG Version: 6.00 Build 0)  -->
<svg version="1.1" id="Слой_1" xmlns="http://www.w3.org/2000/svg" xmlns:xlink="http://www.w3.org/1999/xlink" x="0px" y="0px"
	 viewBox="0 0 285.3 285.3" style="enable-background:new 0 0 285.3 285.3;" xml:space="preserve">
<style type="text/css">
	.st0{fill:#D6001C;}
</style>
<g>
	<path class="st0" d="M255.7,55.7C208-6.4,119.1-18.4,56.6,28.9L45.8,18c-3.1-3.1-6-2.1-6.4,2.3l-3.6,39c-0.5,3.5,2,6.8,5.5,7.2
		c0.6,0.1,1.1,0.1,1.7,0L82,63c4.4-0.4,5.4-3.3,2.3-6.4L73.1,45.4c53.8-38.5,128.6-26,167,27.8c31.5,44,29.5,103.6-4.8,145.5
		c-5.8,7.1-12.4,13.4-19.7,19c-52.4,40.3-127.5,30.5-167.8-21.9c-18.9-24.6-27.6-55.6-24.1-86.4c0.9-6.3-3.5-12.1-9.8-12.9
		c-6.3-0.9-12.1,3.5-12.9,9.8c0,0.2,0,0.4-0.1,0.5C-7.9,205,48.4,275.6,126.7,284.4c36.7,4.1,73.6-6.1,102.9-28.7
		c8.6-6.6,16.5-14.2,23.4-22.7C295,181.8,296.1,108.3,255.7,55.7z"/>
	<path class="st0" d="M137,49.8c-5.1,0-9.3,4.2-9.3,9.3v92.5l84.6,43.7c4.5,2.5,10.1,0.8,12.6-3.7c2.5-4.5,0.8-10.1-3.7-12.6
		c-0.1-0.1-0.3-0.1-0.4-0.2l-74.6-38.5V59.1C146.3,54,142.1,49.8,137,49.8C137,49.8,137,49.8,137,49.8L137,49.8z"/>
</g>
</svg>
