<svg id="Слой_1" data-name="Слой 1" xmlns="http://www.w3.org/2000/svg" viewBox="0 0 799.05 276.27">
  <defs>
    <style>
      .cls-1 {
        fill: none;
      }

      .cls-2 {
        fill: #1a171b;
      }

      .cls-3 {
        fill: #db081b;
      }
    </style>
  </defs>
  <g>
    <g>
      <path class="cls-1" d="M171.89,589.62c1.69-1.69.73-3.42-.75-5.85s-4.16-7-4.16-7L164.8,587.4v6c1.27,0,2.6-.11,3.76-.16C169.56,592.11,170.89,590.58,171.89,589.62Z" transform="translate(-141.37 -401.53)"/>
      <path class="cls-1" d="M162.86,468.06a15.49,15.49,0,0,0-.33-2.75L159.68,471l2.23,5.87S162.86,470.49,162.86,468.06Z" transform="translate(-141.37 -401.53)"/>
      <path class="cls-1" d="M175.21,517.7c.53,0,1.48-1.27,2.58-2a5.44,5.44,0,0,1,3.07-.38,7.25,7.25,0,0,1-.36-2.89c.2-1.49-.16-3.49-2-7.14s-2.38-6.29-1.48-8c2.64-4.8,4.91-5.65,4.91-5.65a36.22,36.22,0,0,0-.74-3.95,41,41,0,0,0-3.64-9.3c-2-3.85-2.22-6.76-3.27-9a41.58,41.58,0,0,1-2.23-6.18s0,8.24.22,11.67,1.63,6.18,1.1,9.14-1.1,8-1.9,15.48,0,11.45,1.16,14.41S174.68,517.7,175.21,517.7Z" transform="translate(-141.37 -401.53)"/>
      <path class="cls-1" d="M199.09,570.94a4.32,4.32,0,0,0-2,2.85c-.27,1.26-2.44,3-3.91,3s-3.38,1-5.6.21a55.06,55.06,0,0,0-5.54-1.42s3.16,8.71,5.07,11.14a31.75,31.75,0,0,1,4.16,6.07,5.9,5.9,0,0,1,.48,2.33l10.57,1.8,9.66-.75,13.25,2.69a22.08,22.08,0,0,0-1.63-2.1c-1.69-2-5.13-4.66-4.38-6.87s1.69-.75,1.21-3.38-3.65-10.2-5.81-11.67-7.76-1-10.5-2.43S200.29,569.92,199.09,570.94Z" transform="translate(-141.37 -401.53)"/>
      <path d="M257.91,499.16c-1.69,0-2.91,0-4.38-1.16s-4.6-.84-10.94-3.54-12.88-2.31-17-1.84-8.23-2.43-11.45-4.92-6.81-1.64-9.66-2.37-3.69-5.65-3.69-5.65c2.42,1,3.69-1,5.11-1.16s2.17-1,3.86-1.22,1.26-2,1.48-2.69-.48-2.43-.48-2.43a10.19,10.19,0,0,1-1.69-3.11c-.27-1.22-2.16-3-2.65-3.7s-2.47-.48-3.42-2.64-3-.74-4.92-1-2.63.26-4.59.53-3.64,3.58-3.86,7.28a22.07,22.07,0,0,0,1,7.29l.26,3.16s-.53-.74-2.69-3.43-3.38-6.29-5.87-9.72-2.16-4.85-2.85-10.92-3.69-10.25-4.16-12.2,1-3.12,1-4.86a3.89,3.89,0,0,0-1.48-3.59c-1.21-1-2.9-4.65-2.9-4.65v-2.69s13.1,2.8,11.77-10.1c-.95-9.3-8.75-14.05-14.46-16.3H167c4.86,2.58,12.58,7.85,12.58,15.3,0,11-10.56,7.45-10.56,7.45l-.53,6.07-2-.2a3.15,3.15,0,0,1,.49-2.7c1-1.21-.49-1.95-.49-2.9a5.79,5.79,0,0,0-1.42-3.43l-2-2.38-.25-3.43,2.21-1.22-.27-7H160L157,410.18l.48,6.07,3.17-.2v3.16a7.86,7.86,0,0,0-2.7,2.91c-.68,1.69,0,4.38.27,6.07s2.16,4.85,2.64,6.54-.68,12.9-.21,18.7c.11.63.11,1.27.21,1.91-1.75-1.64-4.11-2.11-7.49-1.64s-4.13,2.22-4.65,9.5,2.21,9.93,2.21,9.93-.27,1-.94,5.59-4,4.18-6.82,5.4-2,6.07.2,13.83,8.72,23.6,8.72,23.6a19.11,19.11,0,0,1-.69,3.38,17,17,0,0,0-.21,4.65s-2.22,1.22-3.69,2.17a3.65,3.65,0,0,0-1.48,4.12,8.7,8.7,0,0,1,1,4.38c-.21,1.49,2.22,3.65,3.44,4.6a4.26,4.26,0,0,1,1.42,2.48s-.48,3.64-.69,5.33.69,2.22,1.16,5.6,2.44,25.51,2.44,28.67-.48,3-1.91,4.38a18.1,18.1,0,0,0-2.11,2.7c-3.43.21-6.34.37-7.87.59v20.34h0v2.18h99.4v-2.18h0V602.3l-5.65-1.11a.18.18,0,0,0,.06-.16c.25-1.47-1.91-.73-3.6-1.95s-3.43-4.65-4.38-9.46-2.43-13.41-2.43-13.41,2.43-.2,4.32-.47-.2-2-.2-2a9.54,9.54,0,0,0,3.64-5.34c.74-3.38-3.86-3.64-3.86-3.64s4.82-2.7,5.29-5.12-1.91-1.69-3.85-3.18-.48-3.38-1.69-7.49-7.78-1.48-8-4.39-4.13-5.6-4.13-5.6-1.27-1.21-.73-4.11-5.12-5.59-4.65-9.51-6.55-9.93-6.55-9.93v-5.85c0-4.12,2.7-8.51,2.7-8.51s7.81-.21,10.92-.21,2.17.95,6.34,1.42,7.71.11,12.83-.37,10.73,1.33,13.16,1.58,2.43,4.18,3.16,4.4,3.44.94,5.34-.75,2-2.63,2.22-5.33S259.65,499.16,257.91,499.16Zm-86.4.33c.8-7.45,1.32-12.57,1.9-15.48s-.94-5.65-1.1-9.14-.22-11.67-.22-11.67a41.58,41.58,0,0,0,2.23,6.18c1.05,2.22,1.26,5.13,3.27,9a41,41,0,0,1,3.64,9.3,36.22,36.22,0,0,1,.74,3.95s-2.27.85-4.91,5.65c-.9,1.74-.37,4.39,1.48,8s2.16,5.65,2,7.14a7.25,7.25,0,0,0,.36,2.89,5.44,5.44,0,0,0-3.07.38c-1.1.73-2,2-2.58,2s-1.43-.89-2.54-3.8S170.83,506.92,171.51,499.49ZM164.8,587.4,167,576.74s2.69,4.65,4.16,7,2.44,4.16.75,5.85c-1,1-2.33,2.49-3.33,3.6-1.16,0-2.49.16-3.76.16Zm-2.27-122.09a15.49,15.49,0,0,1,.33,2.75c0,2.43-1,8.77-1,8.77L159.68,471Zm52.13,109.48c2.16,1.47,5.33,9,5.81,11.67s-.48,1.21-1.21,3.38,2.69,4.85,4.38,6.87a22.08,22.08,0,0,1,1.63,2.1L212,596.12l-9.66.75-10.57-1.8a5.9,5.9,0,0,0-.48-2.33,31.75,31.75,0,0,0-4.16-6.07c-1.91-2.43-5.07-11.14-5.07-11.14a55.06,55.06,0,0,1,5.54,1.42c2.22.8,4.17-.21,5.6-.21s3.64-1.69,3.91-3a4.32,4.32,0,0,1,2-2.85c1.2-1,2.42,0,5.07,1.42S212.44,573.3,214.66,574.79Z" transform="translate(-141.37 -401.53)"/>
    </g>
    <g>
      <path d="M157.62,648.56a11.4,11.4,0,0,0-5-1h-9.73v24.39h5.88v-8.27h3.75a10.56,10.56,0,0,0,7-2.14,7,7,0,0,0,2.56-5.7A8,8,0,0,0,161,651.5,7.79,7.79,0,0,0,157.62,648.56Zm-2.34,9.69a3.65,3.65,0,0,1-2.61.86h-3.85v-7h3.92a3.25,3.25,0,0,1,2.51,1,3.9,3.9,0,0,1,.93,2.73A3.16,3.16,0,0,1,155.28,658.25Z" transform="translate(-141.37 -401.53)"/>
      <polygon points="23.9 270.39 40.7 270.39 40.7 265.87 29.78 265.87 29.78 260.04 39.03 260.04 39.03 255.69 29.78 255.69 29.78 250.54 40.74 250.54 40.74 246 23.9 246 23.9 270.39"/>
      <polygon points="43.07 270.39 48.95 270.39 48.95 250.54 59.55 250.54 59.55 246 43.07 246 43.07 270.39"/>
      <polygon points="67.78 261.4 67.78 246 61.9 246 61.9 270.39 67.78 270.39 76.53 255.01 76.53 270.39 82.42 270.39 82.42 246 76.53 246 67.78 261.4"/>
      <path d="M242.88,648.67a10.46,10.46,0,0,0-5.53-1.47,10.6,10.6,0,0,0-5.59,1.49,9.77,9.77,0,0,0-3.77,4.23,14.54,14.54,0,0,0-1.31,6.32v1.38a14,14,0,0,0,1.41,6.11,9.84,9.84,0,0,0,3.76,4.1,10.69,10.69,0,0,0,5.53,1.43,10.58,10.58,0,0,0,5.56-1.48,9.88,9.88,0,0,0,3.76-4.23,14.46,14.46,0,0,0,1.32-6.32v-1.12a14,14,0,0,0-1.37-6.24A9.88,9.88,0,0,0,242.88,648.67ZM242,660.33a10.33,10.33,0,0,1-1.22,5.45,4.13,4.13,0,0,1-7,0,10.56,10.56,0,0,1-1.19-5.51l0-1.79q.24-6.63,4.67-6.63a3.89,3.89,0,0,1,3.48,1.88,10.37,10.37,0,0,1,1.21,5.52Z" transform="translate(-141.37 -401.53)"/>
      <polygon points="124.22 255.69 115.56 255.69 115.56 246 109.69 246 109.69 270.39 115.56 270.39 115.56 260.21 124.22 260.21 124.22 270.39 130.07 270.39 130.07 246 124.22 246 124.22 255.69"/>
      <path d="M282.17,647.53l-8.94,24.39h6.28l1.41-4.55H289l1.42,4.55h6.31l-9-24.39Zm.16,15.3,2.61-8.46,2.63,8.46Z" transform="translate(-141.37 -401.53)"/>
      <path d="M302,658.76a21.55,21.55,0,0,1-1,6.4,3.2,3.2,0,0,1-2.55,2.16l-.82.08v4.52h1.57a8.27,8.27,0,0,0,4.63-1.19,7.36,7.36,0,0,0,2.63-3.7,24.79,24.79,0,0,0,1.17-6.77l.4-8.19h5.48v19.85h5.88V647.53H302.43Z" transform="translate(-141.37 -401.53)"/>
      <path d="M337.12,656.91a12.72,12.72,0,0,0-5.13-1h-3v-8.4h-5.9v24.39h8.83a10.79,10.79,0,0,0,7.18-2.24,7.73,7.73,0,0,0,1.47-10A7.81,7.81,0,0,0,337.12,656.91Zm-2.31,9.49a3.91,3.91,0,0,1-2.84,1h-3v-6.95h3a4.2,4.2,0,0,1,2.88.92,3.09,3.09,0,0,1,1,2.43A3.44,3.44,0,0,1,334.81,666.4Z" transform="translate(-141.37 -401.53)"/>
      <polygon points="217.59 255.69 208.93 255.69 208.93 246 203.05 246 203.05 270.39 208.93 270.39 208.93 260.21 217.59 260.21 217.59 270.39 223.44 270.39 223.44 246 217.59 246 217.59 255.69"/>
      <path d="M392.6,649.52a6.87,6.87,0,0,0-2.38,5.6,7,7,0,0,0,3.26,6.25l-4.1,8.65-8.31-22.49h-5.53l-8.94,24.39h6.28l1.41-4.55h8l1.43,4.55h11.09l4.12-8.56h3.38v8.56h5.9V647.53h-8.81C396.46,647.53,394.18,648.2,392.6,649.52Zm-16.91,13.31,2.62-8.46,2.63,8.46Zm26.67-3.65h-3a3.28,3.28,0,0,1-2.53-.84,5.09,5.09,0,0,1,0-5.37,3.16,3.16,0,0,1,2.54-.91h3Z" transform="translate(-141.37 -401.53)"/>
      <path d="M426.4,653.43a3.51,3.51,0,0,1,3.21-1.64,4.59,4.59,0,0,1,3.22,1A4.36,4.36,0,0,1,434,656h5.87a9.24,9.24,0,0,0-3.07-6.44,10.52,10.52,0,0,0-7.14-2.34,10,10,0,0,0-5.42,1.47,9.5,9.5,0,0,0-3.6,4.15,14.82,14.82,0,0,0-1.24,6.28v1.2q0,5.72,2.76,8.85a9.6,9.6,0,0,0,7.57,3.13,12.13,12.13,0,0,0,5.19-1.07,8.36,8.36,0,0,0,3.52-3,8.9,8.9,0,0,0,1.38-4.5h-5.85a4.11,4.11,0,0,1-1.14,3,4.54,4.54,0,0,1-3.1.95,3.58,3.58,0,0,1-3.37-1.67c-.66-1.12-1-3-1-5.58v-1.73A10.51,10.51,0,0,1,426.4,653.43Z" transform="translate(-141.37 -401.53)"/>
      <polygon points="299.32 250.54 306.51 250.54 306.51 270.39 312.39 270.39 312.39 250.54 319.71 250.54 319.71 246 299.32 246 299.32 250.54"/>
      <path d="M478.23,648.56a11.4,11.4,0,0,0-5-1h-9.73v24.39h5.88v-8.27h3.75a10.56,10.56,0,0,0,7-2.14,7,7,0,0,0,2.56-5.7,8,8,0,0,0-1.18-4.31A7.79,7.79,0,0,0,478.23,648.56Zm-2.34,9.69a3.65,3.65,0,0,1-2.61.86h-3.85v-7h3.92a3.25,3.25,0,0,1,2.51,1,3.89,3.89,0,0,1,.92,2.73A3.16,3.16,0,0,1,475.89,658.25Z" transform="translate(-141.37 -401.53)"/>
      <path d="M501.39,648.67a11.17,11.17,0,0,0-11.11,0,9.71,9.71,0,0,0-3.77,4.23,14.4,14.4,0,0,0-1.32,6.32v1.38a14,14,0,0,0,1.42,6.11,9.77,9.77,0,0,0,3.76,4.1,10.67,10.67,0,0,0,5.53,1.43,10.54,10.54,0,0,0,5.55-1.48,9.81,9.81,0,0,0,3.76-4.23,14.46,14.46,0,0,0,1.32-6.32v-1.12a14,14,0,0,0-1.36-6.24A10,10,0,0,0,501.39,648.67Zm-.84,11.66a10.23,10.23,0,0,1-1.22,5.45,3.84,3.84,0,0,1-3.43,1.89,3.89,3.89,0,0,1-3.54-1.93,10.56,10.56,0,0,1-1.19-5.51l0-1.79q.26-6.63,4.67-6.63a3.89,3.89,0,0,1,3.48,1.88,10.27,10.27,0,0,1,1.21,5.52Z" transform="translate(-141.37 -401.53)"/>
      <polygon points="373.74 261.4 373.74 246 367.87 246 367.87 270.39 373.74 270.39 382.5 255.01 382.5 270.39 388.38 270.39 388.38 246 382.5 246 373.74 261.4"/>
      <polygon points="390.8 250.54 397.98 250.54 397.98 270.39 403.86 270.39 403.86 250.54 411.18 250.54 411.18 246 390.8 246 390.8 250.54"/>
      <polygon points="413.66 270.39 430.46 270.39 430.46 265.87 419.54 265.87 419.54 260.04 428.79 260.04 428.79 255.69 419.54 255.69 419.54 250.54 430.5 250.54 430.5 246 413.66 246 413.66 270.39"/>
      <path d="M577.37,658.76a20.9,20.9,0,0,1-1,6.4,3.17,3.17,0,0,1-2.54,2.16l-.83.08v4.52h1.58a8.29,8.29,0,0,0,4.63-1.19,7.35,7.35,0,0,0,2.62-3.7,24,24,0,0,0,1.17-6.77l.41-8.19h5.47v19.85h5.88V647.53h-17Z" transform="translate(-141.37 -401.53)"/>
      <path d="M612.48,656.91a12.64,12.64,0,0,0-5.12-1h-3v-8.4h-5.9v24.39h8.83a10.76,10.76,0,0,0,7.17-2.24,7.72,7.72,0,0,0,1.48-10A7.78,7.78,0,0,0,612.48,656.91Zm-2.3,9.49a3.92,3.92,0,0,1-2.84,1h-3v-6.95h3a4.2,4.2,0,0,1,2.88.92,3.09,3.09,0,0,1,1,2.43A3.44,3.44,0,0,1,610.18,666.4Z" transform="translate(-141.37 -401.53)"/>
      <polygon points="492.96 255.69 484.3 255.69 484.3 246 478.42 246 478.42 270.39 484.3 270.39 484.3 260.21 492.96 260.21 492.96 270.39 498.81 270.39 498.81 246 492.96 246 492.96 255.69"/>
      <path d="M668,649.52a6.9,6.9,0,0,0-2.38,5.6,7,7,0,0,0,3.27,6.25L664.74,670l-8.3-22.49h-5.53L642,671.92h6.29l1.4-4.55h8.06l1.42,4.55h11.09l4.12-8.56h3.39v8.56h5.89V647.53h-8.81C671.83,647.53,669.55,648.2,668,649.52Zm-16.9,13.31,2.61-8.46,2.63,8.46Zm26.67-3.65h-3a3.25,3.25,0,0,1-2.53-.84,5.12,5.12,0,0,1,0-5.37,3.17,3.17,0,0,1,2.54-.91h3Z" transform="translate(-141.37 -401.53)"/>
      <path d="M710.91,648.67a11.17,11.17,0,0,0-11.11,0,9.65,9.65,0,0,0-3.77,4.23,14.4,14.4,0,0,0-1.32,6.32v1.38a14,14,0,0,0,1.42,6.11,9.77,9.77,0,0,0,3.76,4.1,11.27,11.27,0,0,0,11.08-.05,9.81,9.81,0,0,0,3.76-4.23,14.46,14.46,0,0,0,1.32-6.32v-1.12a14,14,0,0,0-1.36-6.24A10,10,0,0,0,710.91,648.67Zm-.84,11.66a10.33,10.33,0,0,1-1.22,5.45,3.84,3.84,0,0,1-3.43,1.89,3.88,3.88,0,0,1-3.54-1.93,10.56,10.56,0,0,1-1.19-5.51l0-1.79c.17-4.42,1.72-6.63,4.67-6.63a3.89,3.89,0,0,1,3.48,1.88,10.27,10.27,0,0,1,1.21,5.52Z" transform="translate(-141.37 -401.53)"/>
      <path d="M733.77,648.56a11.46,11.46,0,0,0-4.95-1h-9.74v24.39H725v-8.27h3.76a10.58,10.58,0,0,0,7-2.14,7,7,0,0,0,2.55-5.7,8,8,0,0,0-1.18-4.31A7.82,7.82,0,0,0,733.77,648.56Zm-2.35,9.69a3.62,3.62,0,0,1-2.6.86H725v-7h3.92a3.29,3.29,0,0,1,2.52,1,3.94,3.94,0,0,1,.92,2.73A3.16,3.16,0,0,1,731.42,658.25Z" transform="translate(-141.37 -401.53)"/>
      <polygon points="616.5 246 600.01 246 600.01 270.39 605.89 270.39 605.89 250.54 616.5 250.54 616.5 246"/>
      <path d="M764.51,647.53l-8.94,24.39h6.28l1.41-4.55h8l1.43,4.55h6.31l-9-24.39Zm.15,15.3,2.62-8.46,2.63,8.46Z" transform="translate(-141.37 -401.53)"/>
      <polygon points="654 255.69 645.34 255.69 645.34 246 639.46 246 639.46 270.39 645.34 270.39 645.34 260.21 654 260.21 654 270.39 659.85 270.39 659.85 246 654 246 654 255.69"/>
      <polygon points="669.11 261.4 669.11 246 663.23 246 663.23 270.39 669.11 270.39 677.87 255.01 677.87 270.39 683.75 270.39 683.75 246 677.87 246 669.11 261.4"/>
      <path d="M842.77,659.39a6.71,6.71,0,0,0,2.71-2.18,5.19,5.19,0,0,0,1-3.06A6,6,0,0,0,844,649a11.06,11.06,0,0,0-6.78-1.82,11.54,11.54,0,0,0-4.62.89,7.5,7.5,0,0,0-3.24,2.49,6,6,0,0,0-1.15,3.6h5.86a2.16,2.16,0,0,1,.86-1.78,3.57,3.57,0,0,1,2.29-.68,3.81,3.81,0,0,1,2.42.7,2.25,2.25,0,0,1,.9,1.86q0,2.91-2.85,3H834.4v4.35h3.13a3.82,3.82,0,0,1,2.55.75A3.19,3.19,0,0,1,841,665a2.37,2.37,0,0,1-1,2,4.31,4.31,0,0,1-2.66.77,3.93,3.93,0,0,1-2.49-.75,2.22,2.22,0,0,1-1-1.83H827.9a6.06,6.06,0,0,0,2.66,5.19,11.17,11.17,0,0,0,6.7,1.91,11.45,11.45,0,0,0,7-1.93,6.16,6.16,0,0,0,2.61-5.22,5.91,5.91,0,0,0-1-3.56A6.18,6.18,0,0,0,842.77,659.39Z" transform="translate(-141.37 -401.53)"/>
      <path d="M857.35,647.53l-9,24.39h6.28l1.41-4.55h8.06l1.42,4.55h6.31l-9-24.39Zm.15,15.3,2.61-8.46,2.63,8.46Z" transform="translate(-141.37 -401.53)"/>
      <polygon points="752.39 246 746.5 246 746.5 265.87 737.74 265.87 737.74 246 731.89 246 731.89 270.39 750.25 270.39 750.25 276.27 755.79 276.27 756.13 265.92 752.39 265.92 752.39 246"/>
      <polygon points="764.3 261.4 764.3 246 758.42 246 758.42 270.39 764.3 270.39 773.07 255.01 773.07 270.39 778.95 270.39 778.95 246 773.07 246 764.3 261.4"/>
      <path d="M931.48,647.53c-3,0-5.26.67-6.85,2a6.9,6.9,0,0,0-2.38,5.6,7,7,0,0,0,3.27,6.25l-5,10.55h6.38l4.13-8.56h3.38v8.56h5.9V647.53Zm2.92,11.65h-3a3.27,3.27,0,0,1-2.53-.84,5.09,5.09,0,0,1,0-5.37,3.15,3.15,0,0,1,2.53-.91h3Z" transform="translate(-141.37 -401.53)"/>
    </g>
    <g>
      <g>
        <path class="cls-2" d="M310,545.38l11.25,11.06v46.14l-14.49,14.49H292.3l-14.49-14.49V570.74H292.3v25.93l5.91,5.91h2.48l6.1-5.91V562.35l-9.92-9.73h-9.53V538.13h9.53l9.92-9.91v-12l-6.1-6.1h-2.48l-5.91,6.1v8.2H277.81v-14.3l14.49-14.5h14.49l14.49,14.5v24Z" transform="translate(-141.37 -401.53)"/>
        <path class="cls-2" d="M380,510.11v92.47h5v14.49H360.75V602.58h4.95V585H351.21v17.54H356v14.49H332V602.58h4.76V510.11l14.49-14.5H365.7Zm-28.79,60.44H365.7V516.21l-6.1-6.1h-2.48l-5.91,6.1Z" transform="translate(-141.37 -401.53)"/>
        <path class="cls-2" d="M427.67,538.13l14.49,14.49v50H442l-14.49,14.49H393.92V602.58h4.77V519.83l9.72-9.72H393.92v-14.5H442V496h.19v27.83H427.67V510.11H413.18v28Zm-14.49,14.49v50h8.39l6.1-5.91V558.54l-6.1-5.92Z" transform="translate(-141.37 -401.53)"/>
        <path class="cls-2" d="M496.88,510.11v92.47l-14.3,14.49H468.09L453.6,602.58V510.11l14.49-14.5h14.49ZM474,602.58h2.48l6.1-5.91V516.21l-6.1-6.1H474l-5.91,6.1v80.46Z" transform="translate(-141.37 -401.53)"/>
        <path class="cls-2" d="M507.56,495.61h33.75l14.3,14.5v46.33l-14.3,14.3H526.82v31.84h14.49v14.49H507.56V602.58h4.77V519.83l9.72-9.72H507.56Zm27.65,14.5h-8.39v46.33h8.39l6.1-6.1V516.21Z" transform="translate(-141.37 -401.53)"/>
      </g>
      <g>
        <polygon class="cls-3" points="704.82 108.58 698.9 114.68 698.9 195.14 704.82 201.05 707.29 201.05 713.4 195.14 713.4 114.68 707.29 108.58 704.82 108.58"/>
        <path class="cls-3" d="M571,483.44V629.25H940.42V483.44Zm59.72,73-14.3,14.3H601.94v31.84h14.49v14.49H582.68V602.58h4.77V519.83l9.72-9.72H582.68v-14.5h33.75l14.3,14.5Zm58.72-32h-14.3v-14.3H660.66v28h19.26v14.49H660.66v50h14.49V570.74h14.3v46.33h-48V602.58h4.76V519.83l9.54-9.72h-14.3v-14.5h48Zm58.92,9.53H733.88V510.11H719.39v92.47h14.87v14.49H700.13V602.58h4.77V519.83l9.72-9.72H700.13v-14.5h48.24Zm63.68-23.83h-4.76v92.47h4.76v14.49H787.84V602.58h5v-61l-14.5,14.49v46.52h5v14.49H759.05V602.58h4.76V520l9.73-9.91H759.05v-14.5h24v14.5H778.3v28l14.5-14.49V510.11h-5v-14.5h24.21Zm57,92.47-14.3,14.49H840.27l-14.49-14.49V510.11l14.49-14.5h14.49l14.3,14.5Zm59.68-92.47h-5v92.47h5v14.49H904.53V602.58h5V552.43H895v50.15h4.77v14.49h-24V602.58h4.76V519.83l9.54-9.72h-14.3v-14.5h24v14.5H895v28h14.5v-28h-5v-14.5h24.21Z" transform="translate(-141.37 -401.53)"/>
        <polygon class="cls-3" points="460.57 108.58 460.57 154.91 468.96 154.91 475.06 148.81 475.06 114.68 468.96 108.58 460.57 108.58"/>
      </g>
    </g>
  </g>
</svg>
